<?xml version="1.0" encoding="UTF-8"?>
<svg width="23px" height="23px" viewBox="0 0 23 23" version="1.1" xmlns="http://www.w3.org/2000/svg" xmlns:xlink="http://www.w3.org/1999/xlink">
    <!-- Generator: Sketch 54.1 (76490) - https://sketchapp.com -->
    <title>about</title>
    <desc>Created with Sketch.</desc>
    <g id="Page-2" stroke="none" stroke-width="1" fill-rule="evenodd">
        <g id="Mobile" transform="translate(-114.000000, -143.000000)" fill-rule="nonzero">
            <g id="menu" transform="translate(0.000000, 130.000000)">
                <g id="about" transform="translate(101.000000, 13.000000)">
                    <path d="M24.5,11 C21.4672886,11 19,8.53271137 19,5.5 C19,2.46728863 21.4672886,0 24.5,0 C27.5327114,0 30,2.46728863 30,5.5 C30,8.53271137 27.5327114,11 24.5,11 Z M20.888372,4.85357168 C20.8468378,5.05503291 20.9766403,5.25129438 21.1780909,5.29283925 C21.2030156,5.29802837 21.2284508,5.30062293 21.2533756,5.30062293 C21.4262754,5.30062293 21.5810027,5.1791252 21.6173478,5.0031098 C21.6619976,4.78556017 21.7310512,4.5737207 21.8229561,4.37434363 C21.9086297,4.18741832 21.8265927,3.96624268 21.639678,3.88056902 C21.4537948,3.79696889 21.2315771,3.87693239 21.1459034,4.06384706 C21.0311579,4.31514724 20.9444422,4.5804623 20.888372,4.85357168 Z M24.877466,2.27724772 C24.877466,2.07163945 24.7107974,1.90497085 24.5051891,1.90497085 C23.5887777,1.90497085 22.7102744,2.24349717 22.0306272,2.85720638 C21.8785052,2.99531355 21.8665638,3.23052533 22.0041499,3.38316842 C22.0778822,3.46416336 22.1791339,3.50569759 22.2803749,3.50569759 C22.3696746,3.50569759 22.4589849,3.4740312 22.530112,3.40964569 C23.0721624,2.91951836 23.7736188,2.64952459 24.5051891,2.64952459 C24.7107974,2.64952459 24.877466,2.48285599 24.877466,2.27724772 Z M24.4997244,12 C30.8409082,12 35.999989,16.7746402 36,22.6432965 C36,22.8405797 35.8272034,23 35.6140355,23 L13.3859645,23 C13.1727966,23 13,22.8405797 13,22.6432965 C13,16.7746402 18.1590808,12 24.4997244,12 Z"></path>
                </g>
            </g>
        </g>
    </g>
</svg>
