<?xml version="1.0" encoding="UTF-8"?>
<svg width="65px" height="15px" viewBox="0 0 65 15" version="1.1" xmlns="http://www.w3.org/2000/svg" xmlns:xlink="http://www.w3.org/1999/xlink">
    <!-- Generator: Sketch 54.1 (76490) - https://sketchapp.com -->
    <title>development</title>
    <desc>Created with Sketch.</desc>
    <g id="Page-1" stroke="none" stroke-width="1" fill="none" fill-rule="evenodd">
        <g id="Artboard-4" transform="translate(-233.000000, -93.000000)">
            <g id="development" transform="translate(233.257812, 93.000000)">
                <g id="Hare-black" transform="translate(53.743639, 0.000000)">
                    <path d="M6.21342122,4.05552922 L4.45574049,4.05552922 C4.45574049,4.05552922 4.2837584,2.54607665 4.03665086,2.01763017 C3.59311363,1.07082844 3.01872231,0.480856617 2.01416355,0.311831922 C1.35076768,0.200253528 0.402319555,0.254640559 0.409450105,0.256722563 L0.770264456,0.514168673 L1.10191995,0.884127955 C1.41502752,1.34569539 1.60199226,1.83666582 1.66281416,2.35699674 C1.68891706,2.58108831 1.7280502,2.90005975 1.74765922,3.06976428 C1.80440652,3.55062212 1.90397956,3.92954676 2.06373785,4.25140751 L1.9720169,4.66882797 C1.90729018,4.96069088 1.71934924,5.81452478 1.54214656,6.6842074 C1.54214656,6.6842074 1.20255409,8.1406326 1.1443637,8.63563957 C1.12717398,8.78163475 1.09326142,9.07655693 1.09211544,9.22361436 C1.08952637,9.58673277 1.15735149,9.87783086 1.18672257,10.0271403 C1.30089627,10.627862 1.58794337,11.2997968 1.96297638,11.8530574 C2.24327493,12.2671211 2.8268341,12.888323 3.34205883,13.28879 C3.78886423,13.634955 5.29939498,14.7072718 5.29939498,14.7072718 C5.29939498,14.7072718 6.9131065,13.6507187 7.40469006,13.2434533 C8.1430416,12.6317692 8.47796526,12.2720924 8.78721045,11.846004 C9.21941519,11.1335339 9.65599165,9.81915235 9.60060255,8.89019637 C9.59954145,8.57292452 8.97824978,5.5057509 8.79234614,4.7324778 L8.68279881,4.23891549 C8.80754101,3.94539548 8.86475519,3.48688731 8.91577258,3.06976428 C8.93525426,2.92045488 8.97116168,2.60815435 9.00044787,2.37399269 C9.03958101,2.01877739 9.12654826,1.66126764 9.26134962,1.30150593 C9.38486095,0.836709262 9.56622311,0.542042027 9.80535122,0.417589203 C9.94596737,0.343486873 10.4242119,0.157465436 10.4242119,0.157465436 C10.4242119,0.157465436 9.50141149,0.201103326 8.78343295,0.314891192 C7.72301821,0.48298111 7.16199667,1.02999567 6.69876554,2.01763017 C6.55437189,2.32670147 6.3925763,3.00598699 6.21342122,4.05552922 Z" id="Path" fill="#FEFEFE"></path>
                    <path d="M6.56640574,13.3918948 L5.86088928,13.7742547 L5.60793685,13.3283807 L5.60793685,14.0229544 L5.28665354,14.2390893 L4.93082042,14.0229544 L4.92603726,13.3203883 L4.65724061,13.7742547 L3.95847182,13.3947857 L3.95847182,13.0469037 L4.53898546,13.0469037 L4.2029683,11.5904161 L4.48752376,11.6992913 C4.28739965,11.3375926 4.20138814,11.1432668 4.22957464,11.1164837 C4.25776113,11.0896156 4.30606253,11.060792 4.37447884,11.0299702 L4.65976031,11.5747289 L4.8359686,11.4229583 L5.27866737,11.8403487 L5.72572223,11.4229583 L5.91192391,11.5747289 C6.04973878,11.2782448 6.135793,11.0966728 6.17000115,11.0299702 C6.2042093,10.9633102 6.26647583,10.9994035 6.35684343,11.1382503 C6.20262915,11.4834115 6.09919326,11.6704251 6.04640765,11.6992913 C5.99451888,11.7276473 6.10803357,11.6878979 6.38596948,11.5804681 L6.04440043,13.0469037 L6.56640574,13.0469037 L6.56640574,13.3918948 Z M4.71122201,10.3652405 C4.70827524,10.1908531 4.88089616,10.0631448 5.11082961,9.99699489 L5.14192017,10.1176036 C5.14537942,10.0558326 5.18535299,10.0249683 5.26184089,10.0249683 C5.33832878,10.0249683 5.38073664,10.0558326 5.38919259,10.1176036 L5.43177127,9.99699489 C5.70432612,10.1267014 5.84931573,10.2499034 5.84931573,10.3656657 C5.84931573,10.4188066 5.85696025,10.536737 5.85836958,10.641361 C5.86148717,10.8756489 5.54302251,11.0369848 5.29352934,11.0366022 C5.05518264,11.0361771 4.70827524,10.8705898 4.70827524,10.6439968 C4.70827524,10.5743183 4.7130157,10.4736481 4.71122201,10.3652405 L4.71122201,10.3652405 Z M6.2650665,12.9377734 C6.2650665,12.9377734 6.51810434,11.8119076 6.54266075,11.4214703 C6.55436242,11.2355195 6.59032155,10.8311805 6.67787051,10.6901231 C6.68995653,10.6707373 7.26239858,9.66110148 7.24292428,9.2953641 C7.22763524,9.00933817 6.51216809,8.56962857 6.51216809,8.56962857 L6.77408895,9.06694298 L6.36440254,9.00236608 L6.87491972,9.47731877 L6.42654094,9.26590275 L6.78096474,9.72929197 L6.27283914,9.40810798 C6.49764778,9.7071003 6.51921472,9.83540385 6.33745454,9.7929761 C6.06481428,9.72929197 5.84594189,9.592911 5.72768674,9.40810798 C5.64889268,9.28490596 5.67383346,9.098615 5.86742342,8.90786019 C6.16483363,8.61494719 6.43657704,8.37640802 6.30935346,8.16605483 C6.17047093,7.93640083 6.3108055,8.28827905 5.7656958,8.73453562 C5.6081931,8.86347685 5.12560617,8.83758657 4.94982495,8.73453562 C4.47082539,8.45365373 4.30973532,8.03762374 4.25934128,8.20027761 C4.20258393,8.38325258 4.32835548,8.51971858 4.70951374,8.90786019 C4.90669107,9.10869052 4.94179607,9.28932729 4.86095208,9.40810798 C4.73975016,9.58623649 4.51545401,9.72929197 4.23277765,9.7929761 C4.04435521,9.83540385 4.06323162,9.7071003 4.28936417,9.40810798 L3.77572939,9.72929197 L4.1685039,9.26624286 L3.67088418,9.46822104 L4.23277765,9.00236608 L3.79909002,9.06843093 L4.08373089,8.58225487 C4.08373089,8.58225487 3.40499159,8.96236156 3.34738011,9.19405617 C3.26649342,9.5193639 3.74707312,10.3825007 3.8805746,10.6901231 C3.89761462,10.7293199 4.00890856,11.1186944 4.03004843,11.2585189 C4.09188789,11.6669391 4.30012628,12.815039 4.30012628,12.815039 L3.56714934,12.6415019 L3.56714934,13.2757499 L5.28665354,14.5183132 L7.05761944,13.2757499 L6.94051737,12.4801234 L6.2650665,12.9377734 Z" id="Path" fill="#BDBFC5"></path>
                    <path d="M6.04372074,7.92126884 C6.05724499,7.92126884 6.07981357,7.93093174 6.11523019,7.94685213 C6.18171031,7.97622397 6.26712437,8.12308315 6.26712437,8.20592024 C6.26712437,8.27270924 6.00762791,8.48631486 5.77657464,8.60916576 C5.64052918,8.68395752 5.58038856,8.73738021 5.51390844,8.84954657 C5.36514174,9.10061192 5.27017618,9.10061192 5.12466376,8.85486755 C5.06135338,8.74802218 4.99491553,8.6892785 4.85561581,8.60916576 C4.63728377,8.48899663 4.40940024,8.3073595 4.38404228,8.23529208 C4.35555684,8.16318209 4.4252067,8.0055958 4.50432354,7.95753667 C4.60562859,7.89883556 4.6182653,7.90675319 4.59924683,8.01896212 C4.5739734,8.18186939 4.59616161,8.18719037 5.31451035,8.18991472 C6.03932536,8.19255393 6.06142905,8.18455117 6.03615562,8.01896212 C6.02423738,7.94859741 6.0209831,7.92126884 6.04372074,7.92126884 M5.29687961,6.86549316 C5.37553155,6.86549316 5.45401444,6.88349938 5.56275782,6.92206587 C5.74470118,6.98651364 5.8761822,7.09731783 5.96379395,7.25698994 C6.02110294,7.36004678 6.00081657,7.36260085 5.86608128,7.27499616 C5.80539123,7.23638709 5.80539123,7.23638709 5.82563533,7.29049086 C5.85931916,7.36775156 5.83911732,7.36515492 5.63692985,7.25958658 C5.35389276,7.11017333 5.26294221,7.11017333 4.96971967,7.25958658 C4.872007,7.30849708 4.78773405,7.34970278 4.77767539,7.34970278 C4.77091327,7.34970278 4.77429433,7.32399178 4.78773405,7.29049086 L4.80802041,7.23379045 L4.7203664,7.29564158 C4.67320059,7.33169657 4.62603479,7.35229942 4.61589161,7.34459464 C4.60583295,7.33940136 4.63951677,7.27244208 4.68664031,7.19773546 C4.78101419,7.05347292 4.93599358,6.94271129 5.11130161,6.89375823 C5.18124732,6.87524121 5.23910573,6.86545059 5.29687961,6.86549316" id="Path" fill="#BDBFC5"></path>
                    <path d="M5.25220133,7.1804239 C5.33115935,7.1804239 5.40998913,7.20031774 5.51921368,7.2430244 C5.7019671,7.31420216 5.8339343,7.43675364 5.92191243,7.61328346 C5.97953854,7.72721278 5.95918985,7.73008684 5.82380271,7.63322222 C5.7628849,7.59051556 5.7628849,7.59051556 5.78319084,7.65033182 C5.81704831,7.73579004 5.79674238,7.73291599 5.59368303,7.61615752 C5.30944269,7.45098919 5.21808736,7.45098919 4.92358718,7.61615752 C4.8255202,7.67027058 4.74087652,7.71580638 4.73078767,7.71580638 C4.72399053,7.71580638 4.72741048,7.68733528 4.74087652,7.65033182 L4.7612252,7.58764151 L4.67320432,7.65603503 C4.6258808,7.69591253 4.57847179,7.71863553 4.56829745,7.71014809 C4.55816585,7.70439998 4.59202333,7.63039307 4.63934684,7.54780891 C4.73416487,7.38829888 4.88977246,7.26583721 5.06581422,7.21167924 C5.13605138,7.1912016 5.19419048,7.1804239 5.25220133,7.1804239" id="Path" fill="#E9ECED"></path>
                    <path d="M6.60546623,1.78252524 C6.37392924,2.2570136 6.0440718,3.77969337 6.0440718,3.77969337 L4.62118484,3.77969337 C4.62118484,3.77969337 4.32499239,2.32338333 4.06093663,1.78252524 C3.58690984,0.813450634 2.86105367,0.209622021 1.78734012,0.0366867974 C1.07833767,-0.0775269323 -0.00751735105,0.111214655 3.92285801e-05,0.113381657 L0.2894817,0.243741673 C0.491683884,0.347970199 0.645023017,0.455597944 0.812286633,0.622372084 C1.17491755,0.983623992 1.3143322,1.33102409 1.41180359,2.12988284 C1.43969501,2.3592026 1.48155336,2.6856975 1.50248254,2.85935506 C1.56314744,3.35151935 1.66957635,3.73932765 1.84036354,4.06875438 L1.74229781,4.49599361 C1.67314237,4.79469991 1.47221377,5.6685964 1.2828323,6.55872416 C1.2828323,6.55872416 0.919861761,8.0493663 0.857668564,8.55601977 C0.839328999,8.7054154 0.803031946,9.00726597 0.801885723,9.15776636 C0.799083845,9.52942837 0.871593047,9.82732735 0.902965589,9.9801647 C1.02497463,10.5949983 1.33178026,11.2827451 1.73266105,11.8490123 C2.03224972,12.2727249 2.65600716,12.9085486 3.2066186,13.3184519 C3.68421142,13.6727354 5.29872984,14.7702579 5.29872984,14.7702579 C5.29872984,14.7702579 7.02354037,13.6888817 7.54889247,13.2720525 C8.33808806,12.645959 8.69604918,12.2778237 9.02658586,11.8417465 C9.48855608,11.1126142 9.95515364,9.76733115 9.89601704,8.81648486 C9.89482836,8.49181703 9.23078332,5.35255409 9.03210471,4.56113113 L8.91497772,4.05596482 C9.04832164,3.75555892 9.10945352,3.28625436 9.16400523,2.85935506 C9.1848495,2.70651771 9.22322674,2.38694871 9.25451437,2.14721885 C9.31725946,1.60189928 9.38004699,1.36221191 9.53338612,1.04961131 C9.69024883,0.7266431 10.0005356,0.434777732 10.3839683,0.243741673 C10.5342508,0.167896618 10.6131704,0.114103991 10.6131704,0.114103991 C10.6131704,0.114103991 9.78997021,-0.0766771278 9.0225953,0.0397885839 C7.88915081,0.211831512 7.10054956,0.771682741 6.60546623,1.78252524 L6.60546623,1.78252524 Z M5.93585988,4.26688631 C5.93585988,4.26688631 5.77241701,5.40898112 5.73060111,5.55480757 C5.67477581,5.74932783 4.92200463,5.74932783 4.86613689,5.55480757 C4.82432098,5.40898112 4.6590951,4.26688631 4.6590951,4.26688631 L5.93585988,4.26688631 Z M1.1701204,0.322688514 C1.22106363,0.322688514 1.36094526,0.361397111 1.63837362,0.431336024 C2.79915764,0.730042319 3.47190549,1.3031505 3.79603182,2.27231008 C3.92856913,2.67184568 4.01572451,3.11990513 4.14804956,4.10984243 C4.20748333,4.54749177 4.2700586,4.9712468 4.28750666,5.04772921 C4.30491226,5.12412664 4.31204432,5.19011396 4.30491226,5.19703986 C4.29098778,5.21437588 4.13064395,4.9990779 4.06802623,4.87058745 C4.03648388,4.80799935 3.9075975,4.46064174 3.78210733,4.09250642 C3.65665962,3.72428611 3.531127,3.38041271 3.49979691,3.32483549 C3.43352826,3.19286085 3.47190549,3.19630255 3.61488617,3.33520311 C3.67746144,3.39430701 3.73689521,3.43947412 3.74377255,3.42902153 C3.77174887,3.40123292 3.69843307,2.83156645 3.63916911,2.65790889 C3.46838192,2.12639864 3.09539255,1.62620369 2.65278075,1.3344658 C2.41232869,1.17466005 2.03577329,1.00797089 2.00091963,1.04612712 C1.98699514,1.05657971 2.01149035,1.10871522 2.04974023,1.16424995 C2.15778233,1.32057149 2.31808371,1.6539923 2.45405969,2.0152867 C2.52380947,2.19939685 2.5795074,2.3626443 2.5795074,2.3765811 C2.5795074,2.38694871 2.49239447,2.38694871 2.38779103,2.37305441 C2.28323005,2.3626443 2.18223509,2.3592026 2.1683106,2.36957021 C2.12636734,2.39391711 2.64229494,3.39430701 2.78523316,3.57144877 C2.84445467,3.644362 2.89323281,3.71383352 2.89323281,3.72080191 C2.89323281,3.73121202 2.8340113,3.74510632 2.76430398,3.75904312 C2.52380947,3.79724183 2.50980008,3.83195635 2.68411084,3.97438359 C3.18951017,4.39469691 3.59039096,4.97477349 3.59039096,5.29085829 C3.59039096,5.42980133 3.32196258,5.49226196 3.10587836,5.40201272 C2.97690707,5.34639301 2.99783625,5.30823679 3.15818008,5.30823679 C3.22088271,5.30823679 3.28018912,5.29434248 3.29063249,5.27692149 C3.32892482,5.21437588 3.08146806,4.90177528 2.67018636,4.49884046 C2.29031965,4.12373673 2.22396608,4.04037091 2.09860328,3.77986333 C1.91376425,3.39779121 1.85462764,3.08514812 1.80920326,2.29317278 C1.78827408,1.93536258 1.7500242,1.53242776 1.72209033,1.40041063 C1.65934525,1.08428334 1.4711949,0.705737909 1.26899272,0.483471532 C1.16888927,0.372614531 1.11217247,0.322731004 1.1701204,0.322688514 L1.1701204,0.322688514 Z M1.44321858,10.1017717 C1.34922831,9.74748822 1.30728505,9.20208366 1.34922831,8.83046414 C1.36998768,8.63938559 1.5373362,7.77793873 1.72209033,6.90952348 L2.13349939,4.88792346 C2.15604177,4.79750426 2.20184823,4.69110873 2.27592818,4.70228366 C2.46047005,4.73028472 2.49502654,4.95544043 2.48543223,4.9712468 C2.47494641,4.9886253 2.27758384,5.12251201 2.27758384,5.12251201 C2.27758384,5.12251201 3.35685869,5.89175507 3.1443405,6.10713803 C2.91416199,6.33985701 2.86190273,6.49617855 2.93852984,6.70459311 C2.99435513,6.86435636 3.0466144,7.22216657 3.04313328,7.43750703 C3.03973706,7.64247989 2.88631302,7.89946078 2.52729059,8.3128482 C2.34257891,8.52126276 2.12989091,8.78525454 2.05670247,8.89985068 C1.80232592,9.27151269 1.75694399,9.62588119 1.91376425,9.9836489 L1.98351402,10.1399704 L2.44009275,9.88987297 C2.44009275,9.88987297 1.8374343,10.8152251 1.75694399,10.9562927 C1.7012036,10.8798528 1.5129259,10.3691627 1.44321858,10.1017717 L1.44321858,10.1017717 Z M5.29830532,14.1241515 L3.65665962,13.0369116 L3.68102747,12.8805901 C3.6949095,12.7937825 3.70539531,12.7208268 3.70891889,12.7173851 C3.71240001,12.7138584 3.82744681,12.8007509 3.96686146,12.9118629 C4.25613412,13.1411401 4.60123207,13.2800407 4.60123207,13.2800407 C4.60123207,13.2800407 4.61167544,12.6270084 4.43048734,12.0816888 C4.3188792,11.7551939 4.17721456,11.2247884 4.17721456,11.2247884 C4.17721456,11.2247884 4.23872851,11.2411047 4.30491226,11.2688933 C4.39796857,11.307092 4.50889746,11.3545536 4.50889746,11.3545536 C4.50889746,11.3545536 4.46860986,11.2697856 4.43048734,11.2168003 C4.32944992,11.074373 4.24569076,10.7686983 4.24569076,10.7686983 L4.34333195,10.7096369 L4.39402047,10.6846527 C4.39402047,10.6846527 4.42089303,10.7209393 4.43405336,10.8033704 C4.44785049,10.8832945 4.50015221,11.004859 4.55245393,11.0812989 C4.60471319,11.1542546 4.65353379,11.2132736 4.66058094,11.2132736 C4.67089694,11.2132736 4.71623642,11.1820433 4.76509947,11.1438445 L4.85565107,11.074373 L5.05089101,11.2827451 C5.15893312,11.3974262 5.27062616,11.4912021 5.29830532,11.4912021 C5.32619674,11.4912021 5.43776242,11.3974262 5.54584698,11.2827451 L5.74117183,11.074373 L5.83860076,11.1507704 L5.93288819,11.2237262 L6.00259552,11.1403603 C6.09658579,11.0257642 6.16973178,10.84858 6.16973178,10.7443514 C6.16973178,10.6967199 6.1857789,10.6752198 6.1857789,10.6752198 C6.1857789,10.6752198 6.22334953,10.689879 6.26733052,10.7165628 C6.31967469,10.7478781 6.37193396,10.7825926 6.37193396,10.7825926 C6.37193396,10.7825926 6.22559952,11.1369186 6.14884505,11.2411047 L6.06168967,11.3522166 L6.23600043,11.2862293 C6.33372654,11.2515148 6.41706118,11.2261056 6.41706118,11.2261056 C6.41706118,11.2261056 6.25340604,11.8281072 6.15584975,12.1164458 C5.98153898,12.6305351 5.99546347,13.2800407 5.99546347,13.2800407 C5.99546347,13.2800407 6.34056142,13.1411401 6.63000389,12.9118629 L6.88429553,12.7104167 L6.91575298,12.8910427 C6.92938029,12.9759806 6.94075762,13.0360618 6.94075762,13.0360618 L5.29830532,14.1241515 Z M4.99506572,9.87249446 C5.11011252,9.82040144 5.20418769,9.79435494 5.29834777,9.79435494 C5.39259275,9.79435494 5.48662547,9.82040144 5.60171472,9.87249446 C5.76545477,9.94893438 6.10006691,10.2164104 6.10006691,10.2719451 C6.10006691,10.2858819 6.04428407,10.2893661 5.97805786,10.2823552 L5.85609127,10.2685034 L5.85609127,10.4456451 C5.85609127,10.6054509 5.84908658,10.6227444 5.77937925,10.6227444 C5.67829939,10.6227444 5.51791311,10.7269729 5.39259275,10.8728844 L5.29830532,10.987523 L5.19378678,10.8694427 C5.0648155,10.720047 4.91843861,10.6227444 4.82079741,10.6227444 C4.75461366,10.6227444 4.7441703,10.6019667 4.73364203,10.4560552 C4.72994864,10.3997132 4.72994864,10.3383573 4.73364203,10.2719451 C4.69254782,10.278871 4.65510454,10.2823552 4.62118484,10.2823552 C4.55835485,10.2823552 4.49662863,10.2823552 4.49662863,10.2719451 C4.49662863,10.2164104 4.83128322,9.94893438 4.99506572,9.87249446 L4.99506572,9.87249446 Z M7.06573835,11.480792 L6.98541785,11.6474812 L7.0516016,11.8072869 L7.11714856,11.9369671 L6.3788962,12.5749579 C6.3788962,12.5749579 6.76232894,10.7721825 6.76937609,10.7235312 C6.77629588,10.6749224 6.84948432,10.5567996 6.92959256,10.4629811 C7.10386087,10.261535 7.19458228,10.0427103 7.26076603,9.64674389 C7.31659132,9.3236482 7.29561969,9.18818936 7.17029934,9.01457429 C7.06573835,8.87554627 6.55316451,8.45527544 6.55316451,8.51085265 C6.55316451,8.53859877 6.60546623,8.63938559 6.67173489,8.73668821 C6.73787619,8.83734756 6.80070618,8.93116598 6.81119199,8.95202868 C6.82507402,8.96936469 6.77969209,8.96936469 6.69614519,8.95202868 C6.61943317,8.93465018 6.52183443,8.93465018 6.4764525,8.95202868 C6.39982538,8.9797748 6.39982538,8.98330149 6.5182684,9.04232041 C6.66124908,9.11183442 6.94704061,9.33754251 6.92628125,9.36188941 C6.91575298,9.36881531 6.83555984,9.3341008 6.74483843,9.28544949 C6.65428683,9.23679818 6.54284851,9.19864196 6.49746658,9.19864196 C6.4277168,9.19864196 6.44516486,9.22294637 6.60898981,9.37578371 C6.71715927,9.48001224 6.7971826,9.58763998 6.7971826,9.62588119 C6.7971826,9.69535271 6.79017791,9.69186851 6.70302253,9.60854517 C6.61943317,9.53210526 6.41374987,9.40701403 6.3685802,9.40701403 C6.36144815,9.40701403 6.40678762,9.51124255 6.47318364,9.63629129 C6.53575891,9.76486672 6.58801818,10.0669722 6.58801818,10.0669722 L6.29174082,9.87249446 C5.85609127,9.59116667 5.65737021,9.51821095 5.29830532,9.51821095 C4.93945269,9.51821095 4.74060427,9.59116667 4.30491226,9.87249446 L4.00863491,10.0669722 C4.00863491,10.0669722 4.06093663,9.76486672 4.12368171,9.63629129 C4.19003527,9.51124255 4.23176627,9.40701403 4.22132291,9.40701403 C4.18294567,9.40701403 3.95989922,9.54944127 3.87966362,9.62588119 C3.79947048,9.69535271 3.79947048,9.69535271 3.79947048,9.62588119 C3.79947048,9.58763998 3.87966362,9.48001224 3.98774818,9.37578371 C4.15161559,9.22294637 4.16897874,9.19864196 4.09931387,9.19864196 C4.05397439,9.19864196 3.94245116,9.23679818 3.8517722,9.28544949 C3.76117815,9.3341008 3.68102747,9.36881531 3.67402277,9.36188941 C3.65313605,9.34102671 3.80303651,9.21249377 4.00167267,9.08396083 C4.16897874,8.9762906 4.17946455,8.96239629 4.10623365,8.94506028 C4.06093663,8.93465018 3.97038503,8.93809189 3.9005928,8.95202868 L3.77174887,8.9797748 L3.9075975,8.77136023 C4.12720529,8.43441274 4.09931387,8.42404512 3.74725367,8.71229882 C3.31856636,9.05965642 3.25921749,9.19520025 3.33244839,9.6327646 C3.39867459,10.0253743 3.50323558,10.2753868 3.68102747,10.4838863 C3.76461682,10.5811465 3.8343666,10.6922584 3.8343666,10.7304571 C3.8343666,10.7686983 4.2282427,12.5784421 4.2282427,12.5784421 L3.50433935,11.9369671 L3.64243797,11.6902264 C3.64243797,11.6902264 3.59743811,11.626661 3.46838192,11.3279547 C3.30455697,10.9528085 3.23145343,10.5949983 3.25577882,10.3171547 C3.26634955,10.1990319 3.26274107,10.1017717 3.24890149,10.1017717 C3.23484965,10.1017717 3.15469896,10.1399704 3.0710247,10.1885368 C2.99083156,10.2372306 2.91777047,10.2753868 2.91063842,10.2753868 C2.87935078,10.2753868 2.81316703,9.88294706 2.7921954,9.59460838 L2.77126622,9.26811348 L2.56562537,9.38967802 C2.45405969,9.45914954 2.35293737,9.50780085 2.34597513,9.49739074 C2.31808371,9.46960213 2.40180042,9.25069248 2.50980008,9.08396083 C2.56562537,8.99362661 2.74345971,8.76099262 2.90036487,8.56651485 C3.17919416,8.22599817 3.31500033,7.9967634 3.36734451,7.79527474 C3.38475011,7.72580322 3.40576419,7.70842472 3.45441498,7.72231902 C3.56593821,7.76051774 3.59039096,7.70842472 3.49979691,7.61813299 C3.45441498,7.57300837 3.4160802,7.50706354 3.4160802,7.47574824 C3.4160802,7.43053864 3.43705183,7.42365522 3.52773079,7.44099123 C3.68102747,7.47230653 3.70539531,7.50353685 3.70539531,7.68760451 C3.70539531,7.77445453 3.71948961,7.84392605 3.73332919,7.84392605 C3.78210733,7.84392605 3.98426706,7.58341847 4.06450266,7.41324512 C4.19691261,7.12839063 4.15513916,6.58999697 3.98774818,6.45105393 C3.94597473,6.41629692 3.93892759,6.43715962 3.93548892,6.56216587 C3.93196534,6.71848742 3.87966362,6.96510069 3.87274383,6.86784056 C3.86225802,6.72541332 3.75077724,6.43715962 3.67746144,6.36420391 C3.63229177,6.31903679 3.55205618,6.28083808 3.50323558,6.28083808 C3.45441498,6.28083808 3.4160802,6.26690129 3.4160802,6.24952278 C3.4160802,6.20439816 3.58071175,6.13169738 3.64973983,6.10713803 C3.76465927,6.06626243 4.06450266,5.94389058 4.12720529,5.86052476 C4.15853537,5.81535765 4.18294567,5.73543353 4.18294567,5.6798988 C4.18294567,5.64182756 4.18591736,5.57915447 4.18591736,5.57915447 C4.18591736,5.57915447 4.28814345,5.65168529 4.54196811,5.83961956 C4.83128322,6.05848672 5.06608908,6.23414132 5.29745626,6.23324903 C5.52130932,6.23244171 5.83860076,6.02721392 6.15228372,5.77367473 L6.39630181,5.57915447 L6.41727344,5.70420321 C6.4277168,5.77019053 6.45904689,5.85011465 6.48345719,5.88138746 C6.54620227,5.9577424 6.74483843,6.05504501 6.93659725,6.10713803 C7.17361065,6.16964116 7.27481787,6.28083808 7.09341751,6.28083808 C7.04472426,6.28083808 6.96444622,6.31903679 6.91919165,6.36420391 C6.8460032,6.43715962 6.73452243,6.72541332 6.72403661,6.86784056 C6.71715927,6.96510069 6.66485755,6.71848742 6.66124908,6.56216587 C6.65768305,6.43715962 6.65072081,6.41629692 6.60898981,6.45105393 C6.44164129,6.58999697 6.39982538,7.12839063 6.53227779,7.41324512 C6.61255583,7.58341847 6.81458821,7.84392605 6.86340881,7.84392605 C6.87729084,7.84392605 6.89138513,7.77445453 6.89138513,7.68760451 C6.89138513,7.50353685 6.91575298,7.47230653 7.06904966,7.44099123 C7.15972861,7.42365522 7.18057289,7.43053864 7.18057289,7.47574824 C7.18057289,7.50706354 7.14228056,7.57300837 7.09698353,7.61813299 C7.00982815,7.70498301 7.03088469,7.76051774 7.13879944,7.72580322 C7.18770494,7.70842472 7.21198788,7.74318173 7.26433205,7.88560897 C7.34787896,8.12181214 7.44912863,8.27813368 7.75924557,8.6463115 C7.89870267,8.81648486 8.05199935,9.0215002 8.10090485,9.10486603 C8.20185736,9.27499689 8.27852693,9.47308633 8.25084777,9.49739074 C8.24371572,9.50780085 8.1426783,9.45914954 8.03115507,9.38967802 L7.82542932,9.26811348 L7.80458504,9.59460838 C7.78357096,9.88294706 7.71742966,10.2753868 7.68597222,10.2753868 C7.67900997,10.2753868 7.60599134,10.2372306 7.52571329,10.1885368 C7.44199658,10.1399704 7.36528456,10.1017717 7.35488365,10.1017717 C7.34456765,10.1017717 7.33739314,10.2546091 7.33395447,10.4421609 C7.3304309,10.7930027 7.25380379,11.0916665 7.06573835,11.480792 L7.06573835,11.480792 Z M5.28824403,6.94780717 C5.36958339,6.94780717 5.4507954,6.97211158 5.56329504,7.02416211 C5.75148783,7.11101213 5.88746381,7.26040777 5.97805786,7.47574824 C6.03736428,7.61469128 6.0164351,7.61817548 5.87702045,7.50005265 C5.81423291,7.44795963 5.81423291,7.44795963 5.83516209,7.52091535 C5.87005821,7.62510139 5.84917148,7.62161719 5.64000706,7.47923244 C5.34721082,7.27778627 5.25313565,7.27778627 4.94981115,7.47923244 C4.84873128,7.54521976 4.7615759,7.60079698 4.75117499,7.60079698 C4.7441703,7.60079698 4.74769387,7.56603997 4.7615759,7.52091535 L4.78254753,7.44447543 L4.69191103,7.52784126 C4.64309043,7.57649257 4.59431228,7.60423868 4.58382647,7.59387107 C4.57342556,7.58686018 4.60827922,7.49656845 4.65705737,7.39586661 C4.75465611,7.20134635 4.91499994,7.05199321 5.09623049,6.9859209 C5.16861234,6.96097914 5.22847063,6.94780717 5.28824403,6.94780717 L5.28824403,6.94780717 Z M6.09798672,7.91836893 C6.11288762,7.91836893 6.13772245,7.93094604 6.17673647,7.95159629 C6.24996737,7.989795 6.34404254,8.18083106 6.34404254,8.28862877 C6.34404254,8.3754363 6.058251,8.65332238 5.8037471,8.81304315 C5.65397399,8.91030328 5.58766288,8.9797748 5.51451689,9.12568624 C5.35060704,9.45222363 5.2460885,9.45222363 5.08574468,9.13261214 C5.0160798,8.99362661 4.94284891,8.91731416 4.78946732,8.81304315 C4.54897281,8.65676409 4.29799248,8.42051843 4.27010106,8.32678499 C4.23872851,8.23296657 4.31544053,8.02803621 4.40255346,7.96549059 C4.51411914,7.88913566 4.52804363,7.89946078 4.50711445,8.0454572 C4.47926548,8.25727098 4.50367578,8.26419689 5.29486665,8.26772358 C6.09314712,8.27116528 6.11747251,8.26075518 6.089666,8.0454572 C6.07650566,7.95389076 6.07293963,7.91836893 6.09798672,7.91836893 L6.09798672,7.91836893 Z M3.6043579,6.89907088 C3.68102747,7.17351526 3.68102747,7.17699945 3.531127,7.15265255 C3.4405754,7.13880074 3.39519347,7.11101213 3.38831614,7.06584502 C3.37430675,6.9928893 3.47882528,6.69766721 3.52064119,6.69766721 C3.53460812,6.69766721 3.57290045,6.78795894 3.6043579,6.89907088 L3.6043579,6.89907088 Z M7.06904966,7.15265255 C6.98541785,7.16310515 6.93659725,7.15962095 6.93659725,7.13880074 C6.93659725,7.05891911 7.0516016,6.69766721 7.07605435,6.69766721 C7.09002129,6.69766721 7.12130893,6.74274934 7.14571923,6.79841153 C7.16669086,6.85747295 7.19101625,6.95120639 7.19101625,7.013752 C7.19802094,7.12142224 7.18770494,7.13187483 7.06904966,7.15265255 L7.06904966,7.15265255 Z M7.97889581,11.9288515 C7.97889581,11.9288515 7.95121665,12.2159155 7.90596208,12.2986864 C7.83391986,12.4305336 7.47179837,12.715473 7.47179837,12.715473 C7.47179837,12.715473 7.44912863,12.526349 7.42811455,12.3248179 L7.38973731,11.9369671 C7.63188748,11.7223065 7.7833587,11.1566766 7.7833587,11.1566766 C7.7833587,11.1566766 7.8905942,11.2648992 7.93712236,11.2619249 C8.02499943,11.2563162 8.06944741,11.1438445 8.10430107,10.952766 L8.12883873,10.8173071 L8.54580909,11.465793 C8.54580909,11.465793 8.1173765,11.4816418 8.06600874,11.5328426 C8.01633908,11.5822587 8.01714569,11.7204369 7.97889581,11.9288515 L7.97889581,11.9288515 Z M2.06803734,11.465793 L2.4676021,10.7999286 L2.4920973,10.9353875 C2.52699342,11.126466 2.57135648,11.2392351 2.65936092,11.2445464 C2.70546455,11.2472233 2.81091704,11.1390431 2.81091704,11.1390431 C2.81091704,11.1390431 2.91123276,11.8095814 3.20657615,11.9369671 L3.16832627,12.3074394 C3.14731219,12.5089705 3.14115655,12.7085047 3.13415186,12.715473 C3.13062828,12.722399 2.76549266,12.4318083 2.69319572,12.2986864 C2.64611568,12.2119639 2.61754502,11.911473 2.61754502,11.911473 C2.57925268,11.7030584 2.57432817,11.5516657 2.53038963,11.5154641 C2.492819,11.4880154 2.06803734,11.465793 2.06803734,11.465793 L2.06803734,11.465793 Z M8.93386917,10.9110831 L8.84336003,11.1126142 L8.15656033,9.89679887 L8.61322397,10.1399704 L8.68653977,9.97323879 C8.84336003,9.62588119 8.79445452,9.27151269 8.53995062,8.89985068 C8.46688953,8.78525454 8.25415908,8.52126276 8.06940495,8.3128482 C7.71050987,7.89946078 7.55700093,7.64247989 7.55368962,7.43750703 C7.55012359,7.22216657 7.60238286,6.86435636 7.65829306,6.70459311 C7.73487772,6.49617855 7.68261845,6.33985701 7.4524824,6.10713803 C7.23996421,5.89175507 8.41025764,5.12055746 8.41025764,5.12055746 C8.41025764,5.12055746 8.12170667,4.9886253 8.11143312,4.9712468 C8.10209353,4.9560353 8.13834813,4.7673362 8.31011173,4.71639042 C8.40057842,4.68957909 8.51121014,4.77999829 8.54619116,4.88397187 C8.59951175,5.04220548 8.71786986,5.8068596 8.92342581,6.77406463 C9.3557216,8.80960144 9.34880181,8.78177034 9.32778772,9.320164 C9.30346233,9.92118826 9.21269847,10.2823552 8.93386917,10.9110831 L8.93386917,10.9110831 Z M8.87464766,1.40041063 C8.84671379,1.53242776 8.80850636,1.94581518 8.78749228,2.3174347 C8.7421528,3.10945253 8.68653977,3.38041271 8.49813471,3.77986333 C8.37281436,4.04037091 8.30641835,4.12021005 7.89174043,4.53363995 C7.46657669,4.95391079 7.25380379,5.23179687 7.30971398,5.28737409 C7.32355356,5.29782668 7.36528456,5.30823679 7.41070894,5.30823679 C7.4524824,5.30823679 7.51526993,5.3186044 7.54660002,5.329057 C7.59542062,5.3499197 7.58145368,5.36377151 7.4942983,5.39852852 C7.33739314,5.46455833 7.16669086,5.45754745 7.07605435,5.38463422 C6.99929988,5.32213109 6.99598857,5.3116785 7.03776202,5.14843104 C7.12130893,4.82193614 7.46984555,4.3390772 7.84283492,4.04037091 C7.95783927,3.95007918 8.05199935,3.86322915 8.05199935,3.84585065 C8.05199935,3.81113614 7.85332074,3.74510632 7.75232578,3.74510632 C7.67213264,3.74510632 7.67565621,3.73469622 7.8220331,3.54366016 C7.99969763,3.31442538 8.47380932,2.39735882 8.42842739,2.36957021 C8.41097933,2.3592026 8.31002683,2.3626443 8.20542339,2.3765811 C8.01014099,2.40080053 8.01014099,2.39735882 8.03455129,2.3174347 C8.10090485,2.09168413 8.32051264,1.57763736 8.45640372,1.32057149 C8.53995062,1.16424995 8.59225234,1.03571701 8.57488919,1.03571701 C8.48429514,1.03571701 8.08341434,1.23027976 7.89174043,1.36918031 C7.47341157,1.66448739 7.14571923,2.10906263 6.96801225,2.62315188 C6.90174359,2.81762965 6.81815423,3.39430701 6.84948432,3.42902153 C6.85988523,3.43594743 6.91919165,3.39430701 6.98189428,3.33520311 C7.1248325,3.19630255 7.16316728,3.19286085 7.09698353,3.32483549 C7.06573835,3.38041271 6.94012083,3.72777031 6.81458821,4.09594813 C6.58801818,4.75943302 6.45904689,5.04772921 6.34756612,5.14843104 C6.30218418,5.19011396 6.31627848,5.03379241 6.43467904,4.18623986 C6.60898981,2.98096208 6.63688123,2.82111385 6.74840446,2.43207333 C7.00982815,1.53242776 7.52915196,0.959277092 8.38313037,0.615361196 C8.61322397,0.525069464 9.34880181,0.313213194 9.4566741,0.306244796 C9.47412216,0.306244796 9.41494311,0.386168913 9.32778772,0.483471532 C9.12554309,0.705737909 8.9374352,1.08428334 8.87464766,1.40041063 L8.87464766,1.40041063 Z" id="Path" fill="#1C3B4E"></path>
                </g>
                <path d="M5.35400391,11.1368408 L0,8.4473877 L0,8.08007812 L5.35400391,5.0793457 L5.35400391,6.01318359 L1.35717773,8.22949219 L1.35717773,8.25439453 L5.35400391,10.2092285 L5.35400391,11.1368408 Z M12.0900879,3 L7.80688477,13.4091797 L6.85437012,13.4091797 L11.1251221,3 L12.0900879,3 Z M19.0440674,8.4473877 L13.6900635,11.1368408 L13.6900635,10.2092285 L17.6993408,8.2668457 L17.6993408,8.22949219 L13.6900635,6.01318359 L13.6900635,5.0793457 L19.0440674,8.08007812 L19.0440674,8.4473877 Z" id="&lt;/&gt;" fill="#1C3B4E" fill-rule="nonzero"></path>
                <path d="M26.4593197,6.05792588 C26.366781,5.96215155 26.2127655,5.96215155 26.1169912,6.05792588 C26.0244524,6.1504646 26.0244524,6.30448009 26.1169912,6.3968031 L27.8527931,8.13260509 L22.1248838,8.13260509 C21.9913606,8.1328208 21.8852323,8.23894912 21.8852323,8.37247235 C21.8852323,8.50599558 21.9913606,8.61557522 22.1248838,8.61557522 L27.8527931,8.61557522 L26.1169912,10.3481416 C26.0244524,10.4439159 26.0244524,10.5981471 26.1169912,10.6904701 C26.2127655,10.7862445 26.3669967,10.7862445 26.4593197,10.6904701 L28.6060454,8.54374447 C28.7018197,8.45120575 28.7018197,8.29719027 28.6060454,8.20486726 L26.4593197,6.05792588 Z" id="arrow" fill="#BDBFC5" fill-rule="nonzero"></path>
                <path d="M48.7602046,6.05792588 C48.6676659,5.96215155 48.5136504,5.96215155 48.4178761,6.05792588 C48.3253374,6.1504646 48.3253374,6.30448009 48.4178761,6.3968031 L50.1536781,8.13260509 L44.4257688,8.13260509 C44.2922456,8.1328208 44.1861173,8.23894912 44.1861173,8.37247235 C44.1861173,8.50599558 44.2922456,8.61557522 44.4257688,8.61557522 L50.1536781,8.61557522 L48.4178761,10.3481416 C48.3253374,10.4439159 48.3253374,10.5981471 48.4178761,10.6904701 C48.5136504,10.7862445 48.6678816,10.7862445 48.7602046,10.6904701 L50.9069303,8.54374447 C51.0027046,8.45120575 51.0027046,8.29719027 50.9069303,8.20486726 L48.7602046,6.05792588 Z" id="arrow" fill="#BDBFC5" fill-rule="nonzero"></path>
                <path d="M41.5145746,6.40844154 C41.367312,4.84865692 40.2200611,3.71700087 38.7842997,3.71700087 C37.8277722,3.71700087 36.9519577,4.21234545 36.4591424,5.00624109 C35.9707895,4.20207634 35.1308691,3.71681416 34.1896693,3.71681416 C32.7541019,3.71681416 31.6066569,4.8484702 31.4595884,6.40825483 C31.4479471,6.47715123 31.4002177,6.83974421 31.545346,7.4310583 C31.7545015,8.28395465 32.2376158,9.05973932 32.942109,9.67401887 L36.4568141,12.7433628 L40.0318599,9.67420559 C40.7363531,9.05973932 41.2194674,8.28414136 41.4286229,7.4310583 C41.5737512,6.83993092 41.5260219,6.47733794 41.5145746,6.40844154 Z M34.5468634,5.22506652 C33.6910332,5.22506652 32.9946889,5.89517269 32.9946889,6.71875541 C32.9946889,6.82200665 32.9079612,6.90546652 32.8006671,6.90546652 C32.6933731,6.90546652 32.6066453,6.82200665 32.6066453,6.71875541 C32.6066453,5.68923034 33.4770272,4.85164429 34.5468634,4.85164429 C34.6541575,4.85164429 34.7408852,4.93510416 34.7408852,5.0383554 C34.7408852,5.14160665 34.6539634,5.22506652 34.5468634,5.22506652 Z" id="heart" fill="#F44336" fill-rule="nonzero"></path>
            </g>
        </g>
    </g>
</svg>