<?xml version="1.0" encoding="UTF-8"?>
<svg width="25px" height="20px" viewBox="0 0 25 20" version="1.1" xmlns="http://www.w3.org/2000/svg" xmlns:xlink="http://www.w3.org/1999/xlink">
    <!-- Generator: Sketch 54.1 (76490) - https://sketchapp.com -->
    <title>email</title>
    <desc>Created with Sketch.</desc>
    <g id="Page-2" stroke="none" stroke-width="1" fill-rule="evenodd">
        <g id="Mobile" transform="translate(-238.000000, -974.000000)" fill-rule="nonzero">
            <g id="contact-social" transform="translate(0.000000, 944.000000)">
                <path d="M260.802734,30 L240.197266,30 C238.987207,30 238,30.9861328 238,32.1972656 L238,46.8457031 C238,48.0527344 238.982812,49.0429688 240.197266,49.0429688 L260.802734,49.0429688 C262.009766,49.0429688 263,48.0601562 263,46.8457031 L263,32.1972656 C263,30.9902344 262.017187,30 260.802734,30 Z M260.499316,31.4648438 L250.546582,41.417627 L240.507764,31.4648438 L260.499316,31.4648438 Z M239.464844,46.5423828 L239.464844,32.4936035 L246.519482,39.4877441 L239.464844,46.5423828 Z M240.500635,47.578125 L247.559717,40.519043 L250.033203,42.9712891 C250.319531,43.2551758 250.781592,43.254248 251.066748,42.969043 L253.478516,40.5572754 L260.499365,47.578125 L240.500635,47.578125 Z M261.535156,46.542334 L254.514307,39.5214844 L261.535156,32.5005859 L261.535156,46.542334 Z" id="email"></path>
            </g>
        </g>
    </g>
</svg>
