<?xml version="1.0" encoding="UTF-8"?>
<svg width="25px" height="25px" viewBox="0 0 25 25" version="1.1" xmlns="http://www.w3.org/2000/svg" xmlns:xlink="http://www.w3.org/1999/xlink">
    <!-- Generator: Sketch 54.1 (76490) - https://sketchapp.com -->
    <title>github</title>
    <desc>Created with Sketch.</desc>
    <g id="Page-2" stroke="none" stroke-width="1" fill-rule="evenodd">
        <g id="Mobile" transform="translate(-58.000000, -972.000000)">
            <g id="contact-social" transform="translate(0.000000, 944.000000)">
                <path d="M81.323209,34.2255727 C80.2054243,32.3103802 78.6892207,30.7941197 76.7741993,29.676449 C74.8588928,28.5587213 72.7679491,28 70.499886,28 C68.2321079,28 66.1404801,28.5588923 64.2255727,29.676449 C62.3103802,30.7940627 60.7942337,32.3103802 59.676449,34.2255727 C58.5588353,36.1407082 58,38.2320509 58,40.4995439 C58,43.2233175 58.7946715,45.6726045 60.3844135,47.8480319 C61.9739845,50.0236304 64.0274749,51.5290597 66.5447137,52.3644908 C66.8377274,52.4188751 67.0546374,52.3806237 67.1956716,52.2507057 C67.3367628,52.1206168 67.407223,51.957692 67.407223,51.7626156 C67.407223,51.7300648 67.4044296,51.4372221 67.399014,50.8837454 C67.3934274,50.3302687 67.3908051,49.8474231 67.3908051,49.4354366 L67.016443,49.5001961 C66.7777565,49.5439201 66.4766478,49.5624473 66.113117,49.5572027 C65.7497572,49.5521291 65.3725447,49.5140487 64.9819928,49.4432465 C64.5912698,49.3730715 64.227853,49.2103177 63.8914572,48.9553274 C63.5552325,48.700337 63.316546,48.3665636 63.1754548,47.9545202 L63.0127011,47.579987 C62.9042176,47.3306403 62.7334259,47.0536455 62.5000981,46.7500285 C62.2667702,46.4461265 62.03082,46.2401048 61.7921336,46.1316213 L61.6781774,46.0500449 C61.6022447,45.9958317 61.5317846,45.9304452 61.4666261,45.8545694 C61.4015246,45.7786937 61.352784,45.7027609 61.3202332,45.6267142 C61.2876255,45.5506104 61.3146466,45.4881882 61.4015816,45.4392196 C61.4885166,45.390251 61.6456267,45.3664792 61.8735959,45.3664792 L62.1989894,45.4151058 C62.4160134,45.4586018 62.6844573,45.5885198 63.0046631,45.8056578 C63.324698,46.0226248 63.5877833,46.3046932 63.793976,46.6517492 C64.0436647,47.0967424 64.3444884,47.4358175 64.697302,47.6691453 C65.0498306,47.9024732 65.4052665,48.0189376 65.7632677,48.0189376 C66.1212689,48.0189376 66.4304725,47.9918025 66.6909925,47.9378172 C66.9512275,47.883547 67.1953866,47.8019706 67.4233558,47.6935441 C67.5210081,46.9662544 67.7868867,46.4075331 68.2207636,46.0169811 C67.6023564,45.9519936 67.0463714,45.8541134 66.5525236,45.7239674 C66.0589607,45.5936504 65.548923,45.382156 65.0227525,45.0889143 C64.4962969,44.7960716 64.0595696,44.4324267 63.7124566,43.9986068 C63.3652867,43.5645588 63.0803679,42.9947212 62.8580993,42.289607 C62.6357167,41.5842078 62.5244969,40.7704961 62.5244969,39.848244 C62.5244969,38.5350978 62.9531862,37.4176552 63.8103939,36.495289 C63.4088397,35.5080493 63.446749,34.4013239 63.924236,33.1752268 C64.2389122,33.0774605 64.7055679,33.150828 65.3239751,33.3948731 C65.9424963,33.6390322 66.3953565,33.8481892 66.6830116,34.0216032 C66.9706667,34.1949602 67.2011442,34.3418661 67.3747862,34.4610098 C68.3840874,34.1789983 69.4256543,34.0379641 70.499772,34.0379641 C71.5738896,34.0379641 72.6156846,34.1789983 73.6250428,34.4610098 L74.243507,34.0705718 C74.6664386,33.8100519 75.1658731,33.5713084 75.7406133,33.3542844 C76.3156955,33.1373744 76.7554441,33.0776315 77.0594031,33.1753978 C77.5474933,34.4015519 77.5909893,35.5082203 77.1893211,36.49546 C78.0464717,37.4178262 78.4753321,38.5355539 78.4753321,39.848415 C78.4753321,40.7706672 78.3637133,41.5869441 78.1416727,42.297759 C77.9193471,43.0086878 77.631977,43.5779553 77.2794485,44.0067587 C76.9265208,44.4355051 76.4870002,44.7962996 75.9608297,45.0890853 C75.4345451,45.382099 74.9243363,45.5935934 74.4307735,45.7239104 C73.9369827,45.8542274 73.3809977,45.9521647 72.7625905,46.0172661 C73.3266134,46.5053563 73.6086819,47.2758 73.6086819,48.3282552 L73.6086819,51.7621595 C73.6086819,51.957236 73.6765197,52.1201037 73.8123093,52.2502497 C73.9479279,52.3801676 74.1621016,52.418419 74.4551153,52.3639778 C76.9726961,51.5286606 79.0261865,50.0231743 80.6157005,47.8475759 C82.2050435,45.6721484 83,43.2228615 83,40.4990879 C82.9994299,38.2318799 82.4403096,36.1407082 81.323209,34.2255727 Z" id="github"></path>
            </g>
        </g>
    </g>
</svg>
