<?xml version="1.0" encoding="UTF-8"?>
<svg width="22px" height="23px" viewBox="0 0 22 23" version="1.1" xmlns="http://www.w3.org/2000/svg" xmlns:xlink="http://www.w3.org/1999/xlink">
    <!-- Generator: Sketch 54.1 (76490) - https://sketchapp.com -->
    <title>home</title>
    <desc>Created with Sketch.</desc>
    <g id="Page-2" stroke="none" stroke-width="1" fill-rule="evenodd">
        <g id="Mobile" transform="translate(-51.000000, -143.000000)" fill-rule="nonzero">
            <g id="menu" transform="translate(0.000000, 130.000000)">
                <g id="home" transform="translate(40.000000, 13.000000)">
                    <path d="M22.9715647,0.409156668 C22.435981,-0.136385556 21.5635026,-0.136385556 21.0279085,0.409156668 L11.6031631,9.99103412 C11.2143368,10.3868575 11,10.912921 11,11.4717991 L11,21.6033245 C11,22.373445 11.6167863,23 12.3742777,23 L19.8513388,23 C20.0510504,23 20.2129392,22.8359268 20.2129392,22.6328855 L20.2129392,17.4635545 C20.2129392,17.2266694 20.2558024,17.0031203 20.3435532,16.7888013 C20.6088301,16.0955879 21.2588948,15.646442 21.999747,15.646442 C22.4844009,15.646442 22.9317278,15.8351288 23.2625699,16.1796774 C23.4370697,16.3581051 23.5732302,16.5672998 23.6599791,16.7970023 C23.7441976,17.0020912 23.7865651,17.2256404 23.7865651,17.4635545 L23.7865651,22.6328855 C23.7865651,22.8359268 23.9484538,23 24.1481654,23 L31.6252266,23 C32.383224,23 33,22.373445 33,21.6033245 L33,11.4717991 C33,10.9119024 32.7856632,10.386868 32.3963309,9.99103412 L22.9715647,0.409156668 Z M13.1499,19.5596546 L13.1499,18.4403454 C13.1499,18.196802 13.30664,18 13.5,18 C13.69336,18 13.8501,18.196802 13.8501,18.4403454 L13.8501,19.5596546 C13.8501,19.803198 13.69336,20 13.5,20 C13.30664,20 13.1499,19.803198 13.1499,19.5596546 Z M13.8501,16.6822009 C13.8501,16.8579671 13.69336,17 13.5,17 C13.30664,17 13.1499,16.8579671 13.1499,16.6822009 L13.1499,13.3177991 C13.1499,13.1420329 13.30664,13 13.5,13 C13.69336,13 13.8501,13.1420329 13.8501,13.3177991 L13.8501,16.6822009 Z"></path>
                </g>
            </g>
        </g>
    </g>
</svg>
