<?xml version="1.0" encoding="UTF-8"?>
<svg width="25px" height="25px" viewBox="0 0 25 25" version="1.1" xmlns="http://www.w3.org/2000/svg" xmlns:xlink="http://www.w3.org/1999/xlink">
    <!-- Generator: Sketch 54.1 (76490) - https://sketchapp.com -->
    <title>instagram</title>
    <desc>Created with Sketch.</desc>
    <g id="Page-2" stroke="none" stroke-width="1" fill-rule="evenodd">
        <g id="Mobile" transform="translate(-148.000000, -971.000000)" fill-rule="nonzero">
            <g id="contact-social" transform="translate(0.000000, 944.000000)">
                <path d="M165.1875,27 C169.501563,27 173,30.4984375 173,34.8125 L173,44.1875 C173,48.5015625 169.501563,52 165.1875,52 L155.8125,52 C151.498437,52 148,48.5015625 148,44.1875 L148,34.8125 C148,30.4984375 151.498437,27 155.8125,27 L165.1875,27 Z M170.65625,44.1875 L170.65625,34.8125 C170.65625,31.796875 168.203125,29.34375 165.1875,29.34375 L155.8125,29.34375 C152.796875,29.34375 150.34375,31.796875 150.34375,34.8125 L150.34375,44.1875 C150.34375,47.203125 152.796875,49.65625 155.8125,49.65625 L165.1875,49.65625 C168.203125,49.65625 170.65625,47.203125 170.65625,44.1875 Z M160.5,33.25 C163.951562,33.25 166.75,36.0484375 166.75,39.5 C166.75,42.9515625 163.951562,45.75 160.5,45.75 C157.048438,45.75 154.25,42.9515625 154.25,39.5 C154.25,36.0484375 157.048438,33.25 160.5,33.25 Z M160.5,43.40625 C162.653125,43.40625 164.40625,41.653125 164.40625,39.5 C164.40625,37.3453125 162.653125,35.59375 160.5,35.59375 C158.346875,35.59375 156.59375,37.3453125 156.59375,39.5 C156.59375,41.653125 158.346875,43.40625 160.5,43.40625 Z M167.21875,33.6140625 C166.7588,33.6140625 166.385937,33.2411996 166.385937,32.78125 C166.385937,32.3213004 166.7588,31.9484375 167.21875,31.9484375 C167.6787,31.9484375 168.051562,32.3213004 168.051562,32.78125 C168.051562,33.2411996 167.6787,33.6140625 167.21875,33.6140625 Z" id="instagram"></path>
            </g>
        </g>
    </g>
</svg>
