<?xml version="1.0" encoding="UTF-8"?>
<svg width="23px" height="23px" viewBox="0 0 23 23" version="1.1" xmlns="http://www.w3.org/2000/svg" xmlns:xlink="http://www.w3.org/1999/xlink">
    <!-- Generator: Sketch 54.1 (76490) - https://sketchapp.com -->
    <title>skills</title>
    <desc>Created with Sketch.</desc>
    <g id="Page-2" stroke="none" stroke-width="1" fill-rule="evenodd">
        <g id="Mobile" transform="translate(-179.000000, -143.000000)" fill-rule="nonzero">
            <g id="menu" transform="translate(0.000000, 130.000000)">
                <g id="skills" transform="translate(169.000000, 13.000000)">
                    <path d="M30.1073278,12.7135428 C30.1073278,12.3668098 30.2246451,12.0200768 30.2246451,11.5577662 C30.2246451,11.0954555 30.2246451,10.7487225 30.1073278,10.4019896 L32.570991,8.4371693 C32.8056256,8.20601398 32.8056256,7.97485866 32.6883083,7.74370333 L30.3419624,3.69848517 C30.2246451,3.58290751 29.9900565,3.46732985 29.6380586,3.58290751 L26.7051262,4.73868413 C26.1185397,4.27637348 25.4146359,3.9296405 24.7107322,3.58290751 L24.241463,0.577888308 C24.3587803,0.231155323 24.0067824,0 23.7721938,0 L19.079502,0 C18.8448214,0 18.4929155,0.231155323 18.4929155,0.462310647 L18.0236463,3.58290751 C17.3197425,3.81406284 16.733156,4.27637348 16.0292523,4.73868413 L13.2136371,3.58290751 C12.8616853,3.46732985 12.6270507,3.58290751 12.3923701,3.81406284 L10.0460241,7.85928099 C9.92870685,7.97485866 10.0460241,8.32159164 10.2806587,8.55274696 L12.744322,10.4019896 C12.744322,10.7487225 12.6270047,11.0954555 12.6270047,11.5577662 C12.6270047,12.0200768 12.6270047,12.3668098 12.744322,12.7135428 L10.2806587,14.678363 C10.0460241,14.9095637 10.0460241,15.1406737 10.1633414,15.3718743 L12.5096874,19.4170925 C12.6270047,19.5326701 12.8615932,19.6482478 13.2135911,19.5326701 L16.1465235,18.3768935 C16.73311,18.8392042 17.4370138,19.1859372 18.1409176,19.5326701 L18.6101868,22.5376894 C18.6101868,22.7688447 18.8448214,23 19.1967732,23 L23.8894651,23 C24.1241457,23 24.4760516,22.7687994 24.4760516,22.5376894 L24.9453208,19.5326701 C25.6492245,19.1859372 26.3531283,18.8392042 26.9397148,18.3768935 L29.8726472,19.5326701 C30.1073278,19.6482478 30.4592337,19.5326701 30.576597,19.3014695 L32.9229429,15.2562513 C33.0402602,15.025096 33.0402602,14.678363 32.8055796,14.5627854 L30.1073278,12.7135428 Z M21.4258479,15.6029843 C19.1968193,15.6029843 17.3197425,13.7537417 17.3197425,11.5577662 C17.3197425,9.3617906 19.1968193,7.51254801 21.4258479,7.51254801 C23.6548765,7.51254801 25.5319532,9.3617906 25.5319532,11.5577662 C25.5319532,13.7537417 23.6548765,15.6029843 21.4258479,15.6029843 Z M14.8292694,9.07857384 C14.8495973,8.82602003 14.8984307,8.57710263 14.974099,8.33772229 C15.0306753,8.15963724 15.2222591,8.06289946 15.3991841,8.11771975 C15.5772692,8.17429611 15.6757618,8.36471026 15.6191867,8.5428049 C15.55837,8.7328211 15.5195453,8.93154755 15.5033652,9.13272179 C15.490076,9.29551251 15.3639684,9.42223941 15.2080132,9.4413883 C15.1855311,9.44414875 15.1623013,9.44462545 15.1392445,9.44270533 C14.9529354,9.42754289 14.8141177,9.26489134 14.8292694,9.07857384 Z M18.8741214,5.87292806 C18.8968928,6.0583862 18.7650169,6.22717963 18.5795588,6.24995103 C17.9196842,6.33097344 17.3168745,6.65219439 16.8822286,7.15432083 C16.8252029,7.22027382 16.7481524,7.25872806 16.6676043,7.26861812 C16.5762852,7.2798307 16.4803565,7.25358069 16.4048798,7.18868941 C16.263872,7.06624358 16.2485931,6.85276063 16.3705112,6.71134059 C16.9155822,6.08250457 17.6704976,5.67985925 18.4970984,5.57836543 C18.6825566,5.55559403 18.85135,5.68746992 18.8741214,5.87292806 Z"></path>
                </g>
            </g>
        </g>
    </g>
</svg>
