<?xml version="1.0" encoding="UTF-8"?>
<svg width="25px" height="15px" viewBox="0 0 25 15" version="1.1" xmlns="http://www.w3.org/2000/svg" xmlns:xlink="http://www.w3.org/1999/xlink">
    <!-- Generator: Sketch 54.1 (76490) - https://sketchapp.com -->
    <title>vk</title>
    <desc>Created with Sketch.</desc>
    <g id="Page-2" stroke="none" stroke-width="1" fill-rule="evenodd">
        <g id="Mobile" transform="translate(-103.000000, -977.000000)">
            <g id="contact-social" transform="translate(0.000000, 944.000000)">
                <path d="M127.867413,46.0713255 C127.837141,46.0051245 127.808921,45.9502114 127.782706,45.9062162 C127.348957,45.113516 126.520076,44.1405325 125.296562,42.9869882 L125.270712,42.9605726 L125.257764,42.9476192 L125.24468,42.934342 L125.23155,42.934342 C124.676257,42.3971933 124.324617,42.0360254 124.177359,41.851116 C123.907919,41.4988768 123.847557,41.1423351 123.994815,40.7810747 C124.098852,40.5081286 124.489655,39.9317035 125.16631,39.0510128 C125.522235,38.5842749 125.804122,38.2102 126.012288,37.9283716 C127.513631,35.9030189 128.164527,34.6087917 127.96484,34.0451811 L127.887291,33.9134731 C127.835181,33.8341799 127.700689,33.761641 127.483997,33.6954863 C127.266803,33.6294703 126.989202,33.6185525 126.650693,33.6625477 L122.902055,33.6888246 C122.841328,33.6669889 122.754615,33.6690244 122.641642,33.6954863 C122.528805,33.7219482 122.472364,33.7352254 122.472364,33.7352254 L122.407124,33.7683028 L122.355333,33.8080419 C122.311931,33.8343187 122.264197,33.8805345 122.212087,33.9465967 C122.160251,34.0124276 122.116894,34.0896852 122.082246,34.1777219 C121.674119,35.2431832 121.210098,36.2337926 120.689317,37.1495036 C120.368223,37.6955346 120.073343,38.1687492 119.80404,38.5694248 C119.535101,38.9699617 119.309474,39.2650673 119.127385,39.4542328 C118.945023,39.6435834 118.780441,39.7952767 118.632636,39.9098678 C118.48506,40.0245051 118.372405,40.0729415 118.2944,40.0552231 C118.216212,40.0375048 118.142583,40.0199252 118.072875,40.0023456 C117.951468,39.9230525 117.853813,39.8152156 117.780184,39.6787426 C117.706236,39.5422695 117.656451,39.3704985 117.630419,39.1635684 C117.604524,38.9564994 117.589205,38.7783905 117.584829,38.6286402 C117.580771,38.479075 117.58264,38.2675187 117.591439,37.9945726 C117.600466,37.7214877 117.604524,37.536717 117.604524,37.4398443 C117.604524,37.1051846 117.610952,36.7419812 117.623854,36.3501416 C117.636984,35.9583021 117.647607,35.6478374 117.656497,35.4191178 C117.665341,35.1901669 117.669445,34.9479388 117.669445,34.6925723 C117.669445,34.4372058 117.654126,34.2369373 117.623854,34.091582 C117.593947,33.9464117 117.548037,33.8054974 117.487538,33.6688856 C117.426675,33.5324126 117.337591,33.4268426 117.220697,33.351898 C117.103575,33.277046 116.957958,33.2176455 116.784669,33.1735116 C116.324706,33.0678953 115.739004,33.0107617 115.02729,33.0018793 C113.413338,32.9842998 112.37629,33.0900548 111.916373,33.3190057 C111.734147,33.4157397 111.569246,33.5479103 111.421806,33.7151014 C111.265567,33.9088931 111.243775,34.0146482 111.356566,34.0320427 C111.877301,34.1111971 112.245947,34.3005477 112.462912,34.5999094 L112.5411,34.758542 C112.601918,34.8729943 112.662644,35.0756221 112.723417,35.3661478 C112.784098,35.6566735 112.82326,35.978056 112.840493,36.3301102 C112.883804,36.9730139 112.883804,37.5233473 112.840493,37.9811566 C112.797045,38.4391509 112.756014,38.7956925 112.716852,39.051059 C112.677689,39.3064256 112.619151,39.5133557 112.5411,39.6718033 C112.462912,39.830297 112.410893,39.9271698 112.384816,39.9623289 C112.358783,39.9974881 112.337082,40.0196476 112.319849,40.0283449 C112.207058,40.0722013 112.089753,40.0945459 111.968346,40.0945459 C111.846756,40.0945459 111.699316,40.0328323 111.525798,39.9094977 C111.352326,39.7861631 111.172289,39.6167514 110.985687,39.4009852 C110.799085,39.1851727 110.588639,38.8835904 110.354258,38.496192 C110.120059,38.1087936 109.877062,37.650938 109.625402,37.1226254 L109.41719,36.7394831 C109.287029,36.4929989 109.109225,36.1340979 108.883598,35.6631039 C108.657833,35.1919249 108.458283,34.7361512 108.284811,34.2958752 C108.215468,34.1109658 108.111294,33.9701904 107.972471,33.8733176 L107.907322,33.8335785 C107.864011,33.7984194 107.794485,33.7610859 107.69911,33.7213005 C107.603597,33.6815614 107.503936,33.653064 107.399716,33.6355307 L103.833213,33.6618075 C103.468762,33.6618075 103.221479,33.7455881 103.091272,33.9129179 L103.039162,33.9920723 C103.01313,34.03616 103,34.1065709 103,34.2034899 C103,34.3003626 103.026032,34.4192561 103.078142,34.5600315 C103.598786,35.801705 104.164975,36.9991982 104.776709,38.1526962 C105.388444,39.3061943 105.920029,40.2353676 106.371148,40.9393835 C106.822358,41.6439083 107.282275,42.3088328 107.7509,42.9338331 C108.219526,43.5590647 108.529724,43.9597404 108.681495,44.1357675 C108.833448,44.3121184 108.952804,44.4439653 109.039563,44.532002 L109.365034,44.8489433 C109.573292,45.0603146 109.879113,45.3134605 110.282635,45.6083811 C110.686248,45.9034868 111.133081,46.1940124 111.623362,46.4804208 C112.113734,46.7663666 112.684209,46.9997123 113.335105,47.1801806 C113.98591,47.3608339 114.619345,47.4333266 115.235502,47.3983525 L116.732422,47.3983525 C117.036009,47.3717518 117.266014,47.274879 117.422344,47.107688 L117.474135,47.041487 C117.508966,46.9889333 117.541563,46.9072808 117.571653,46.7974084 C117.602107,46.687351 117.617243,46.5660981 117.617243,46.434205 C117.608353,46.0556426 117.636756,45.71446 117.701677,45.4107034 C117.766552,45.1070393 117.8405,44.8780884 117.923202,44.7238969 C118.005857,44.5698443 118.099136,44.4398479 118.202945,44.334463 C118.306983,44.2288467 118.381113,44.1648663 118.424607,44.1428456 C118.467826,44.120686 118.502338,44.1056509 118.528371,44.0966298 C118.736628,44.0262189 118.981723,44.0944092 119.26402,44.3015244 C119.546089,44.5084546 119.810651,44.7639599 120.058116,45.067624 C120.305445,45.3715657 120.602604,45.7125633 120.949639,46.0911256 C121.296903,46.4698268 121.600536,46.7513314 121.860767,46.9365184 L122.120997,47.0950122 C122.294789,47.2007672 122.520416,47.29764 122.798154,47.3856767 C123.07539,47.4736671 123.318297,47.4956878 123.526873,47.4516926 L126.85895,47.3989539 C127.188524,47.3989539 127.444971,47.3435782 127.626878,47.2337058 C127.809149,47.1236484 127.917426,47.0023955 127.952348,46.8705024 C127.98718,46.7384705 127.989049,46.588674 127.958959,46.4212054 C127.928094,46.2541531 127.897685,46.1373414 127.867413,46.0713255 Z" id="vk"></path>
            </g>
        </g>
    </g>
</svg>
