<?xml version="1.0" encoding="UTF-8"?>
<svg width="24px" height="23px" viewBox="0 0 24 23" version="1.1" xmlns="http://www.w3.org/2000/svg" xmlns:xlink="http://www.w3.org/1999/xlink">
    <!-- Generator: Sketch 54.1 (76490) - https://sketchapp.com -->
    <title>works</title>
    <desc>Created with Sketch.</desc>
    <g id="Page-2" stroke="none" stroke-width="1" fill-rule="evenodd">
        <g id="Mobile" transform="translate(-246.000000, -143.000000)" fill-rule="nonzero">
            <g id="menu" transform="translate(0.000000, 130.000000)">
                <g id="works" transform="translate(232.000000, 13.000000)">
                    <path d="M35.6,4.84210526 L30.8,4.84210526 L30.8,2.42105263 C30.8,1.08342105 29.726,0 28.4,0 L23.6,0 C22.274,0 21.2,1.08342105 21.2,2.42105263 L21.2,4.84210526 L16.4,4.84210526 C15.074,4.84210526 14.012,5.92552632 14.012,7.26315789 L14,20.5789474 C14,21.9165789 15.074,23 16.4,23 L35.6,23 C36.926,23 38,21.9165789 38,20.5789474 L38,7.26315789 C38,5.92552632 36.926,4.84210526 35.6,4.84210526 Z M28,5 L24,5 L24,3 L28,3 L28,5 Z M16.1499,17.5596546 L16.1499,16.4403454 C16.1499,16.196802 16.30664,16 16.5,16 C16.69336,16 16.8501,16.196802 16.8501,16.4403454 L16.8501,17.5596546 C16.8501,17.803198 16.69336,18 16.5,18 C16.30664,18 16.1499,17.803198 16.1499,17.5596546 Z M16.8501,14.6822009 C16.8501,14.8579671 16.69336,15 16.5,15 C16.30664,15 16.1499,14.8579671 16.1499,14.6822009 L16.1499,11.3177991 C16.1499,11.1420329 16.30664,11 16.5,11 C16.69336,11 16.8501,11.1420329 16.8501,11.3177991 L16.8501,14.6822009 Z"></path>
                </g>
            </g>
        </g>
    </g>
</svg>
