<svg xmlns="http://www.w3.org/2000/svg" viewBox="0 0 199 83" class="hare">

<path fill="#ffffff" d="M34.92,22.79H25s-1-8.48-2.36-11.45C20.19,6,17,2.7,11.32,1.75a49,49,0,0,0-9-.31l2,1.45L6.19,5a18.34,18.34,0,0,1,3.15,8.27c.15,1.26.37,3.06.48,4a20,20,0,0,0,1.78,6.64l-.52,2.35c-.36,1.64-1.42,6.43-2.41,11.32,0,0-1.91,8.19-2.24,11-.1.82-.29,2.47-.29,3.3a20.3,20.3,0,0,0,.53,4.52A28.74,28.74,0,0,0,11,66.61a42.35,42.35,0,0,0,7.75,8.07c2.51,1.94,11,8,11,8s9.07-5.94,11.83-8.23a40.79,40.79,0,0,0,7.77-7.85c2.43-4,4.88-11.39,4.57-16.61,0-1.79-3.5-19-4.54-23.37l-.62-2.77a27.84,27.84,0,0,0,1.31-6.57c.11-.84.31-2.59.48-3.91a25.34,25.34,0,0,1,1.46-6q1.05-3.91,3.06-5c.79-.42,3.48-1.47,3.48-1.47s-5.19.25-9.22.89c-6,.94-9.11,4-11.72,9.57Q36.42,13.94,34.92,22.79Z"/>

<path fill="#2DAF93" d="M13.54,27.8a1.54,1.54,0,0,0-1-1.4c-.46-.15-1,.35-1.21.92-.27.87-.88,5.07-1.94,10.4-2.22,11.2-2.18,11-2.08,14a22.07,22.07,0,0,0,2,8.76l.46,1.11,3.53-6.69L11,57c.08.21-.14-.32-.68-1.59-.81-1.91-.26-4,1.05-6a36.89,36.89,0,0,1,2.42-3.23c1.84-2.27,2.63-3.69,2.65-4.81a15.93,15.93,0,0,0-.54-4c-.39-1.14-.12-2,1.06-3.28S12,28.62,12,28.62,13.49,27.89,13.54,27.8Z"/>

<path fill="#2DAF93" d="M48.32,27.34c-.18-.59-.75-1.1-1.21-.94a1.6,1.6,0,0,0-1,1.43,6,6,0,0,0,1.55.87c.23,0-6,4.33-4.93,5.54s1.45,2.19,1.06,3.37a16.66,16.66,0,0,0-.54,4.13c0,1.16.8,2.61,2.64,4.94A37.32,37.32,0,0,1,48.29,50,6.39,6.39,0,0,1,49,56.05l-.38.94L46.4,55.54l3.44,6.93.47-1.13c1.43-3.55,2.72-5.62,2.85-9,.11-3-.69-2.85-2.91-14.33C49.2,32.55,48.59,28.23,48.32,27.34Z"/>

<path fill="#2DAF93" d="M27.11,30.62c.35,1.18,5,1.18,5.4,0,.26-.88,1.28-7.79,1.28-7.79h-8s1,6.91,1.29,7.79"/>

<path fill="#BDBFC5" d="M35.21,72.7s1.42-6.32,1.56-8.52a12.26,12.26,0,0,1,.76-4.11c.06-.11,3.28-5.78,3.17-7.84-.09-1.6-4.11-4.07-4.11-4.07L38.07,51l-2.31-.36,2.87,2.67-2.52-1.19,2,2.6-2.85-1.8q1.89,2.52.36,2.16a5.42,5.42,0,0,1-3.42-2.16c-.45-.69-.31-1.74.78-2.81,1.67-1.65,3.2-3,2.48-4.17s0,.69-3.05,3.19c-.89.73-3.6.58-4.58,0-2.7-1.58-3.6-3.91-3.89-3s.39,1.8,2.53,4c1.11,1.13,1.31,2.14.86,2.81A5.81,5.81,0,0,1,23.79,55q-1.59.36.31-2.16l-2.88,1.8,2.2-2.6-2.79,1.14,3.16-2.62L21.35,51,23,48.23s-3.82,2.13-4.14,3.44c-.45,1.82,2.25,6.67,3,8.4a31,31,0,0,1,.84,3.2C23,65.56,24.16,72,24.16,72l-4.11-1V74.6l9.66,7,9.95-7L39,70.13ZM26.47,58.25c0-1,1-1.7,2.25-2.07l.17.67c0-.34.25-.52.68-.52s.67.18.71.52l.24-.67c1.53.73,2.35,1.42,2.35,2.07,0,.3,0,1,.05,1.55,0,1.31-1.77,2.22-3.17,2.22s-3.29-.93-3.29-2.21C26.46,59.42,26.48,58.86,26.47,58.25Zm10.43,17-4,2.15-1.42-2.5v3.9L29.71,80l-2-1.22,0-4L26.17,77.4l-3.93-2.13v-2h3.27l-1.89-8.19,1.6.61c-1.13-2-1.61-3.12-1.45-3.27a3.32,3.32,0,0,1,.81-.49L26.19,65l1-.85,2.48,2.35,2.52-2.35,1,.85c.78-1.66,1.26-2.68,1.45-3.06s.54-.17,1,.61c-.86,1.94-1.45,3-1.74,3.15s.34-.06,1.91-.66L34,73.32H36.9Z"/>

<path fill="#BDBFC5" d="M29.77,38.58a4.3,4.3,0,0,1,1.49.32,3.94,3.94,0,0,1,2.25,1.88c.32.58.21.59-.55.1-.34-.22-.34-.22-.22.09s.07.42-1.06-.18c-1.59-.84-2.11-.84-3.75,0a10.45,10.45,0,0,1-1.08.51s0-.14,0-.33l.12-.32-.49.35c-.27.2-.53.32-.59.27s.13-.4.4-.82a4.21,4.21,0,0,1,2.38-1.71,3.83,3.83,0,0,1,1.05-.16M34,44.51a1.36,1.36,0,0,1,.4.15,2.06,2.06,0,0,1,.86,1.45c0,.38-1.46,1.58-2.76,2.27A3.32,3.32,0,0,0,31,49.73c-.83,1.41-1.36,1.41-2.18,0a3.59,3.59,0,0,0-1.51-1.38,8,8,0,0,1-2.65-2.1,1.69,1.69,0,0,1,.67-1.56c.57-.33.64-.29.54.34-.15.92,0,.95,4,1s4.2,0,4.06-1c-.07-.39-.09-.55,0-.55"/>

<path fill="#E9ECED" d="M29.51,40.35a4,4,0,0,1,1.5.35,4.13,4.13,0,0,1,2.27,2.08c.32.64.21.66-.55.11-.35-.24-.35-.24-.23.1s.07.46-1.07-.19c-1.59-.93-2.11-.93-3.76,0a10.24,10.24,0,0,1-1.09.56s0-.16.06-.37l.12-.35-.5.38c-.27.23-.53.35-.59.31s.13-.45.4-.92a4.28,4.28,0,0,1,2.4-1.88,3.5,3.5,0,0,1,1-.18"/>

<path fill="#16364A" fill-rule="evenodd" d="M49.87,7.87A51.22,51.22,0,0,0,49.38,13c-.25,4.45-.57,6-1.63,8.22-.7,1.46-1.07,1.91-3.4,4.24s-3.59,3.92-3.27,4.23a1.1,1.1,0,0,0,.56.12,3,3,0,0,1,.77.12c.27.11.19.19-.3.39a2.45,2.45,0,0,1-2.35-.08c-.43-.35-.45-.41-.21-1.33a14.29,14.29,0,0,1,4.52-6.23,5.16,5.16,0,0,0,1.18-1.09c0-.19-1.12-.56-1.69-.56s-.43-.06.4-1.14c1-1.28,3.66-6.44,3.4-6.59a4,4,0,0,0-1.25,0c-1.1.14-1.1.12-1-.33a42.64,42.64,0,0,1,2.37-5.6,4.61,4.61,0,0,0,.67-1.6,13.13,13.13,0,0,0-3.84,1.87,14.34,14.34,0,0,0-5.19,7.05,16.17,16.17,0,0,0-.67,4.53c.06,0,.39-.2.74-.53.81-.78,1-.8.65-.06C39.71,19,39,21,38.29,23c-1.27,3.73-2,5.35-2.62,5.91-.26.24-.18-.64.49-5.41,1-6.77,1.14-7.67,1.76-9.85A14.62,14.62,0,0,1,47.11,3.46a49.53,49.53,0,0,1,6-1.74c.1,0-.23.45-.72,1A11.85,11.85,0,0,0,49.87,7.87Zm.33,53.44-.51,1.14-3.86-6.84L48.4,57l.41-.94A5.85,5.85,0,0,0,48,50a38.14,38.14,0,0,0-2.64-3.3c-2-2.32-2.88-3.76-2.9-4.92A15.08,15.08,0,0,1,43,37.68c.43-1.18.13-2-1.16-3.36s5.38-5.55,5.38-5.55-1.62-.74-1.68-.83A1.61,1.61,0,0,1,46.7,26.5c.51-.15,1.13.36,1.32.95.3.88,1,5.18,2.12,10.62,2.43,11.43,2.39,11.28,2.28,14.3A21.15,21.15,0,0,1,50.2,61.31ZM11.62,64.43l2.25-3.74.13.76c.2,1.07.45,1.71.94,1.74.26,0,.86-.6.86-.6s.56,3.77,2.22,4.49l-.22,2.08c-.11,1.13-.15,2.25-.19,2.29a12.27,12.27,0,0,1-2.48-2.34,9.75,9.75,0,0,1-.42-2.17c-.22-1.18-.24-2-.49-2.23A18,18,0,0,0,11.62,64.43ZM44.84,67a9.32,9.32,0,0,1-.41,2.08A14.78,14.78,0,0,1,42,71.45s-.13-1.06-.25-2.19l-.21-2.18c1.36-1.21,2.21-4.39,2.21-4.39s.6.61.86.6c.5,0,.75-.67.94-1.74l.14-.76L48,64.43a9.89,9.89,0,0,0-2.69.38C45.05,65.09,45.05,65.86,44.84,67ZM39.72,40.19c-.47.06-.74,0-.74-.07a8.64,8.64,0,0,1,.78-2.48c.08,0,.26.25.39.56a4.22,4.22,0,0,1,.26,1.21C40.45,40,40.39,40.08,39.72,40.19ZM20.25,38.77c.44,1.54.44,1.56-.41,1.42-.51-.07-.76-.23-.8-.48-.08-.41.51-2.07.74-2.07A2.73,2.73,0,0,1,20.25,38.77Zm14,5.73a1.44,1.44,0,0,1,.44.18,2.86,2.86,0,0,1,.94,1.9c0,.48-1.61,2.05-3,2.94A3.91,3.91,0,0,0,31,51.28c-.92,1.84-1.51,1.84-2.41,0a4.25,4.25,0,0,0-1.67-1.8A9,9,0,0,1,24,46.79a2.38,2.38,0,0,1,.74-2c.63-.43.7-.37.59.45-.16,1.19,0,1.23,4.42,1.25s4.63,0,4.47-1.25C34.15,44.7,34.13,44.5,34.27,44.5ZM29.72,39a3.68,3.68,0,0,1,1.54.43A4.6,4.6,0,0,1,33.59,42c.34.78.22.8-.56.14-.36-.3-.36-.3-.24.11.2.59.08.57-1.1-.23-1.64-1.13-2.17-1.13-3.88,0a9.09,9.09,0,0,1-1.11.68s0-.19.06-.45l.12-.43-.51.47c-.28.28-.55.43-.61.37a3.18,3.18,0,0,1,.41-1.11,4.64,4.64,0,0,1,2.47-2.3A3.25,3.25,0,0,1,29.72,39Zm10,25.48-.46.93.38.9.36.73-4.14,3.58S38,60.53,38,60.26a4.39,4.39,0,0,1,.9-1.46,8.49,8.49,0,0,0,1.86-4.59c.31-1.82.2-2.58-.51-3.55-.58-.78-3.47-3.15-3.47-2.83a4.41,4.41,0,0,0,.67,1.26c.37.57.73,1.1.78,1.22s-.17.09-.64,0a2.57,2.57,0,0,0-1.24,0c-.43.15-.43.17.24.5s2.41,1.66,2.29,1.8a3.23,3.23,0,0,1-1-.43,4.14,4.14,0,0,0-1.39-.49c-.39,0-.29.14.63,1a3.65,3.65,0,0,1,1.06,1.4c0,.39,0,.37-.53-.1a6.21,6.21,0,0,0-1.88-1.13,6.05,6.05,0,0,0,.59,1.29A12.82,12.82,0,0,1,37,56.57l-1.66-1.09c-2.45-1.58-3.57-2-5.59-2s-3.13.41-5.58,2l-1.66,1.09a12.82,12.82,0,0,1,.64-2.42,4.11,4.11,0,0,0,.55-1.29,7.34,7.34,0,0,0-1.92,1.23c-.45.39-.45.39-.45,0a3.65,3.65,0,0,1,1.06-1.4c.92-.86,1-1,.63-1a4.18,4.18,0,0,0-1.4.49,3.32,3.32,0,0,1-1,.43c-.12-.12.72-.84,1.84-1.56.94-.61,1-.69.58-.78a3.26,3.26,0,0,0-1.15,0l-.73.15L22,49.29c1.23-1.89,1.08-1.95-.9-.33-2.41,1.95-2.75,2.71-2.33,5.17a9.19,9.19,0,0,0,2,4.78,3.9,3.9,0,0,1,.86,1.39c0,.21,2.21,10.38,2.21,10.38l-4.07-3.6.78-1.39a15.65,15.65,0,0,1-1-2A12.2,12.2,0,0,1,18.3,58a2.89,2.89,0,0,0,0-1.21,5,5,0,0,0-1,.48,6.11,6.11,0,0,1-.9.49,13.48,13.48,0,0,1-.67-3.82l-.12-1.84-1.15.68a3.78,3.78,0,0,1-1.24.61c-.15-.16.32-1.39.92-2.32.32-.51,1.32-1.82,2.2-2.91a12,12,0,0,0,2.62-4.34c.1-.39.22-.48.49-.41.63.22.77-.07.26-.58a1.52,1.52,0,0,1-.47-.8c0-.25.11-.29.62-.2.87.18,1,.36,1,1.39,0,.49.08.88.16.88a6.89,6.89,0,0,0,1.86-2.42c.74-1.6.51-4.63-.43-5.41-.24-.19-.28-.08-.29.63,0,.87-.32,2.26-.36,1.71a6.63,6.63,0,0,0-1.09-2.83,1.75,1.75,0,0,0-1-.47c-.28,0-.49-.07-.49-.17s.92-.66,1.31-.8a8.7,8.7,0,0,0,2.68-1.39,2,2,0,0,0,.32-1c0-.22,0-.57,0-.57s.58.41,2,1.47C27.15,34.05,28.47,35,29.77,35s3-1.16,4.8-2.59l1.37-1.09.12.7a2.8,2.8,0,0,0,.37,1A6,6,0,0,0,39,34.32c1.33.35,1.9,1,.88,1a1.75,1.75,0,0,0-1,.47,6.51,6.51,0,0,0-1.09,2.83c0,.55-.34-.84-.36-1.71,0-.71-.06-.82-.29-.63-.94.78-1.18,3.81-.43,5.41a6.77,6.77,0,0,0,1.86,2.42c.08,0,.16-.39.16-.88,0-1,.13-1.21,1-1.39.51-.09.63-.05.63.2a1.52,1.52,0,0,1-.47.8c-.49.49-.37.8.24.6.27-.09.41.1.7.9a12.76,12.76,0,0,0,2.78,4.28,27.09,27.09,0,0,1,1.92,2.57c.57,1,1,2.07.84,2.21a3.79,3.79,0,0,1-1.23-.61L44,52.08l-.11,1.84a13.48,13.48,0,0,1-.67,3.82,6.11,6.11,0,0,1-.9-.49,5.85,5.85,0,0,0-1-.48,9.54,9.54,0,0,0-.12,1.91A13,13,0,0,1,39.71,64.52Zm-11.64-9a3.52,3.52,0,0,1,3.41,0,8.76,8.76,0,0,1,2.8,2.24c0,.08-.31.1-.69.06l-.68-.08v1c0,.9,0,1-.43,1A3.69,3.69,0,0,0,30.3,61.1l-.53.64-.58-.66a3.52,3.52,0,0,0-2.1-1.39c-.37,0-.43-.11-.49-.93a9,9,0,0,1,0-1,3.7,3.7,0,0,1-.63.06c-.35,0-.7,0-.7-.06A8.76,8.76,0,0,1,28.07,55.48Zm1.7,23.89-9.22-6.11.14-.88c.07-.49.13-.9.15-.92a15.69,15.69,0,0,1,1.45,1.1,16.44,16.44,0,0,0,3.57,2.07,24,24,0,0,0-1-6.74c-.63-1.83-1.43-4.81-1.43-4.81a6.42,6.42,0,0,1,.72.24l1.15.49A6.84,6.84,0,0,0,24.9,63a10.45,10.45,0,0,1-1-2.52l.55-.33.28-.14a1.75,1.75,0,0,1,.23.67,4.58,4.58,0,0,0,.66,1.56,4.39,4.39,0,0,0,.61.74,2.41,2.41,0,0,0,.59-.39l.51-.39,1.09,1.17a5,5,0,0,0,1.39,1.17,4.69,4.69,0,0,0,1.39-1.17l1.1-1.17.55.43.53.41.39-.47a4.23,4.23,0,0,0,.94-2.22.68.68,0,0,1,.09-.39,3.24,3.24,0,0,1,.46.23l.59.37a20.82,20.82,0,0,1-1.26,2.58l-.49.62,1-.37,1-.34s-.92,3.39-1.47,5a22.4,22.4,0,0,0-.9,6.54,16.44,16.44,0,0,0,3.57-2.07l1.43-1.14.17,1c.08.48.14.81.14.81ZM8.11,56.77a22.53,22.53,0,0,1-.53-7.15c.12-1.07,1.06-5.91,2.1-10.79L12,27.47c.13-.51.38-1.11.8-1A1.57,1.57,0,0,1,14,27.94c-.06.09-1.17.85-1.17.85s6.06,4.32,4.87,5.53-1.59,2.18-1.16,3.36a15.08,15.08,0,0,1,.59,4.11c0,1.16-.88,2.6-2.9,4.92A36.28,36.28,0,0,0,11.56,50a5.94,5.94,0,0,0-.81,6.09l.4.88,2.56-1.4s-3.38,5.2-3.84,6A29.09,29.09,0,0,1,8.11,56.77Zm-1.53-55a23.12,23.12,0,0,1,2.63.61c6.52,1.68,10.3,4.9,12.12,10.35.75,2.24,1.24,4.76,2,10.32.33,2.46.69,4.85.78,5.28a2.21,2.21,0,0,1,.1.83,6,6,0,0,1-1.33-1.83c-.18-.35-.9-2.3-1.61-4.37s-1.41-4-1.58-4.32c-.38-.74-.16-.72.64.06.36.33.69.59.73.53a17.07,17.07,0,0,0-.59-4.33A14.54,14.54,0,0,0,14.91,7.5c-1.35-.9-3.47-1.84-3.67-1.62-.07.06.06.35.28.66a25.52,25.52,0,0,1,2.27,4.78c.39,1,.71,2,.71,2a2.63,2.63,0,0,1-1.08,0,4.17,4.17,0,0,0-1.24,0c-.23.13,2.67,5.75,3.47,6.75a6.33,6.33,0,0,1,.61.84c0,.06-.33.14-.73.21-1.35.22-1.43.41-.45,1.21,2.84,2.37,5.1,5.63,5.1,7.4,0,.78-1.51,1.13-2.73.63-.72-.32-.6-.53.3-.53a1.13,1.13,0,0,0,.74-.18c.22-.35-1.17-2.1-3.49-4.37-2.13-2.11-2.5-2.58-3.21-4-1-2.15-1.37-3.9-1.62-8.35-.12-2-.34-4.28-.49-5A12,12,0,0,0,7.13,2.72C6.57,2.09,6.25,1.81,6.58,1.81ZM33.36,24s-.92,6.42-1.16,7.23c-.31,1.1-4.54,1.1-4.86,0C27.11,30.4,26.18,24,26.18,24Zm90.13,20.76c-3.5,0-4.64,5.84-4.74,8.32,3.43-2.16,5.77-4.64,5.77-6.94C124.52,45.3,124.09,44.74,123.49,44.74Zm-22.83-7.19a2.74,2.74,0,0,1,2.69-2.47,2.21,2.21,0,0,1,2.27,2.47A2.88,2.88,0,0,1,102.86,40,2.13,2.13,0,0,1,100.66,37.55ZM52.48,33.28a7,7,0,0,1,3.66-.89c2.93,0,5.94,1.55,7.46.7a1,1,0,0,1,.5.92,1.28,1.28,0,0,1-1.24,1.38h-.18l.25,18.87,6-18.9a2.59,2.59,0,0,1,2.59-1.91,3.37,3.37,0,0,1,1.66.39l1.27,21.39s0,0,0,0L77,48.81C78.79,44.38,81,37.09,78.4,33A4.16,4.16,0,0,1,81.09,32c1.73,0,2.44,1.13,2.44,2.9a11.41,11.41,0,0,1-.14,1.68,6.6,6.6,0,0,1,4.14-1.89c1.27,0,2,.6,1.7,2l-1.84,8.67c1.34-1.91,2.9-3.22,4.71-3.22s4.21,1,3.32,5.2l-1.73,8.14c-.21,1,.25,1.45,1,1.45a3.54,3.54,0,0,0,2.8-1.45l.16-.13,1.89-9.1c.11-.57,0-.89-.35-.89s-.39.14-.71.43a1.29,1.29,0,0,1,0-2,6.45,6.45,0,0,1,4-1.7c1.27,0,2,.6,1.7,2L101.94,54.3c-.43,2,.14,2.61,1.06,2.61a5.32,5.32,0,0,0,2.82-1q.06-.41.15-.84l2.27-10.69h-1.77c-.18-1.13.39-2.05,1.48-2.05h.71l.64-2.91a2.83,2.83,0,0,1,3-2.23,3.06,3.06,0,0,1,1.66.46l-1,4.68h2.59c.17,1.13-.39,2.05-1.49,2.05h-1.56L110.4,54.3c-.43,2,.14,2.61,1.06,2.61a5.48,5.48,0,0,0,3.07-1.21,8.69,8.69,0,0,1-.17-1.76c0-4.6,3-12,8.88-12,3.22,0,4,1.8,4,3.4,0,3-1.59,5.41-8.43,9.2a3,3,0,0,0,3.3,2.62,10.48,10.48,0,0,0,7.32-3.83c.92-.17,1.28.57.89,1.21a12.9,12.9,0,0,1-10,5.7A5.6,5.6,0,0,1,115,57.23a9.78,9.78,0,0,1-6.3,3.05A2.64,2.64,0,0,1,105.81,58a8.3,8.3,0,0,1-5.22,2.33A3,3,0,0,1,97.39,58a8.31,8.31,0,0,1-5.15,2.26c-1.77,0-3.65-.89-2.76-5l1.48-7c.25-1.14.32-2.09-.85-2.09A4.4,4.4,0,0,0,86.82,48L84.59,58.05a2.82,2.82,0,0,1-3,2.23,2.42,2.42,0,0,1-1.49-.36l4.5-21.09c.21-1-.46-1.17-1-.5a1.8,1.8,0,0,1-.42-.54,76,76,0,0,1-4.53,12.68l-3.37,7.72a3.08,3.08,0,0,1-3,2.26,4.07,4.07,0,0,1-2-.46L69.09,41.38,63.75,58.19a3.1,3.1,0,0,1-3,2.26,4.07,4.07,0,0,1-2-.46l-.64-25.34c-3,.07-4.57,1.7-4.68,3.28,1.12,5.43,2.14,10.66,2.14,11.61.33,5.35-2.29,12.91-4.89,17-1.85,2.45-3.86,4.52-8.3,8C39.47,76.92,29.78,83,29.78,83S20.7,76.83,18,74.84a43.08,43.08,0,0,1-8.28-8.26,28.7,28.7,0,0,1-4.67-10.5,20.71,20.71,0,0,1-.56-4.62c0-.84.21-2.54.31-3.38.35-2.85,2.39-11.22,2.39-11.22,1.06-5,2.19-9.92,2.58-11.6l.55-2.4a19.72,19.72,0,0,1-1.9-6.79c-.11-1-.35-2.81-.51-4.1C7.39,7.48,6.6,5.53,4.56,3.5A11.15,11.15,0,0,0,1.63,1.37L0,.64S6.06-.44,10,.21c6,1,10.12,4.36,12.78,9.81C24.3,13.06,26,21.24,26,21.24h8S35.82,12.68,37.12,10C39.9,4.34,44.33,1.19,50.7.22a27.54,27.54,0,0,1,8.94.42,12.69,12.69,0,0,1-1.29.73A10.44,10.44,0,0,0,53.57,5.9,16.53,16.53,0,0,0,52,12.07c-.17,1.34-.39,3.14-.5,4a27.28,27.28,0,0,1-1.4,6.72l.66,2.84C51.12,27.1,51.77,30,52.48,33.28Z"/>

<path fill="#16364A" d="M191.87,44c-3.5,0-4.63,5.84-4.74,8.32,3.43-2.16,5.77-4.64,5.77-6.94C192.9,44.6,192.48,44,191.87,44Zm3.79.64c0,3-1.59,5.41-8.42,9.2a3,3,0,0,0,3.29,2.62,10.49,10.49,0,0,0,7.32-3.82c.93-.18,1.28.56.89,1.2a12.87,12.87,0,0,1-10,5.7c-3.33,0-6-2-6-6.34,0-4.6,3-12,8.89-12C194.85,41.27,195.66,43.08,195.66,44.67Zm-32.92,9,2-9.48a5,5,0,0,0-1.67-.29c-4.28,0-5.8,5.6-5.8,9.45,0,1.77.81,2.55,1.91,2.55A5.08,5.08,0,0,0,162.74,53.69Zm8.13,1.51,2.07-9.68c.1-.57,0-.89-.36-.89s-.39.14-.7.43a1.29,1.29,0,0,1,0-2,6.4,6.4,0,0,1,4-1.7c1.27,0,2,.6,1.7,2l-.39,1.91c1.42-2.87,2.94-3.86,4.57-3.86a2.59,2.59,0,0,1,2.58,2.8,3.06,3.06,0,0,1-2.83,3.32,3.32,3.32,0,0,1-1-.14,1.51,1.51,0,0,0,.39-1.09c0-.5-.35-.89-1.1-.89-1.16,0-2.83,1.59-4.63,9.77l-.43,2.16a2.82,2.82,0,0,1-3,2.23,3.12,3.12,0,0,1-1.67-.46l.31-1.42A7.93,7.93,0,0,1,166,59.57c-1.66,0-3.32-.78-3.29-3.58-1.48,2.09-3.36,3.58-5.38,3.58a4,4,0,0,1-3.95-2.94c-1.84,1.65-3.69,2.94-5.53,2.94-2.13,0-4.25-1-3.37-5.13l1.88-8.89a20.06,20.06,0,0,1-5.52.92L138.5,57.3a2.88,2.88,0,0,1-3.05,2.27,3.33,3.33,0,0,1-1.87-.46l5.7-25.17h-.18c-3.22,0-4.39,1.81-4.39,3.47a3.22,3.22,0,0,0,.71,2.05,3.51,3.51,0,0,1-1.52.36c-1.81,0-2.87-1.59-2.87-3.36,0-2.23,1.7-4.78,5.88-4.78,2.93,0,5.94,1.56,7.46.71a1,1,0,0,1,.5.92,1.29,1.29,0,0,1-1.24,1.38h-.32l-2,9.38c1.81,0,3.86-.15,5.38-.29L148.55,35a2.86,2.86,0,0,1,3-2.27,3.31,3.31,0,0,1,1.7.46L148.9,53.59c-.38,2,.22,2.62,1.17,2.62A6,6,0,0,0,153,55a9.53,9.53,0,0,1-.09-1.37c0-6.19,4-12.35,8.92-12.35a5.22,5.22,0,0,1,3.64,1.17,3.16,3.16,0,0,1,2.41-1,3.06,3.06,0,0,1,1.66.46L167,53.59c-.43,2,.14,2.62,1.06,2.62A5.28,5.28,0,0,0,170.87,55.2Z"/>

<path fill="#16364A" d="M81,65.85c-1.4,0-1.85,2.33-1.89,3.32,1.37-.86,2.3-1.85,2.3-2.77C81.38,66.07,81.21,65.85,81,65.85ZM74.3,69.71v0l.81-3.8a2.17,2.17,0,0,0-.68-.12c-1.71,0-2.32,2.23-2.32,3.78,0,.7.33,1,.77,1A2,2,0,0,0,74.3,69.71ZM77.68,71a3.6,3.6,0,0,1-2.12,1c-.66,0-1.3-.31-1.28-1.43a2.88,2.88,0,0,1-2.16,1.43c-1.47,0-1.77-1.47-1.77-2.38a6.21,6.21,0,0,1,.4-2.15,3.76,3.76,0,0,1-.78.26c-.08,2.14-2,4.27-3.69,4.27a1.9,1.9,0,0,1-1.91-1.37,4.89,4.89,0,0,1-3.2,1.37,2.28,2.28,0,0,1-2.41-2.53c0-2.18,1.49-4.79,3.61-4.79,1.15,0,1.71.46,1.71,1.38s-.46,1.16-1,1.16a.86.86,0,0,1-.56-.2,2.61,2.61,0,0,0,.22-.92c0-.27-.17-.41-.52-.41-.79,0-1.71,1.51-1.71,3.55,0,1.12.59,1.53,1.35,1.53a4.11,4.11,0,0,0,2.34-.93c0-.11,0-.23,0-.34,0-2.14,1.48-4.82,3.62-4.82a1.85,1.85,0,0,1,1.7.84c0,.32-.27.48-.48.4a2.59,2.59,0,0,0-.91-.16c-1.29,0-2.12,1.9-2.12,3.28s.42,1.73.92,1.73c.83,0,1.9-1.37,1.56-2.9a1.52,1.52,0,0,1-.66-.17c-.29-.78,0-1.49.83-1.49a1.25,1.25,0,0,1,1.2.84,5.55,5.55,0,0,0,1.33-.5,3.36,3.36,0,0,1,2.73-1.87,2.1,2.1,0,0,1,1.36.4l.36-1.66c.08-.38-.19-.46-.41-.19a.56.56,0,0,1-.22-.44c0-.33,1-1,1.79-1,.51,0,.79.24.68.78L76,69.67c-.17.79.06,1,.42,1a2,2,0,0,0,1-.34,3.67,3.67,0,0,1-.1-.85c0-1.84,1.22-4.79,3.55-4.79,1.29,0,1.62.73,1.62,1.36,0,1.21-.64,2.17-3.37,3.68a1.2,1.2,0,0,0,1.32,1,4.2,4.2,0,0,0,2.93-1.53c.36-.07.51.23.35.48a5.16,5.16,0,0,1-4,2.28A2.25,2.25,0,0,1,77.68,71Z"/>


</svg>
